<svg width="75" height="20" viewBox="0 0 75 20" fill="none" xmlns="http://www.w3.org/2000/svg">
<title>Flipkart Logo</title>
<path fill-rule="evenodd" clip-rule="evenodd" d="M18.4767 0.668643L17.8714 0.919473C17.7881 0.946942 17.7164 1.00142 17.6676 1.07426C17.6188 1.14711 17.5957 1.23417 17.6019 1.32163V3.12099H2.37996V1.3237C2.38658 1.23617 2.36362 1.14895 2.31475 1.07602C2.26588 1.0031 2.19394 0.948701 2.11046 0.921548L1.50515 0.670712C1.50515 0.670712 1.33724 0.558771 1.55283 0.463413L2.6142 0.0633279C2.74842 0.0226048 2.88875 0.00576725 3.0288 0.0135782H16.9717C17.1077 0.00662763 17.2438 0.0234624 17.3739 0.0633279L18.4353 0.463413C18.6446 0.556698 18.4767 0.668643 18.4767 0.668643Z" fill="#FCD20A"/>
<path fill-rule="evenodd" clip-rule="evenodd" d="M18.477 0.667293L17.3679 0.252695C17.237 0.211751 17.1008 0.190096 16.9637 0.188427H3.02075C2.88994 0.189019 2.7602 0.212164 2.63725 0.256839L1.5054 0.658999C1.5054 0.658999 1.33748 0.547058 1.55307 0.4517L2.61444 0.0516151C2.74866 0.010892 2.88899 -0.00595193 3.02904 0.00185907H16.972C17.1079 -0.00509154 17.244 0.0117495 17.3741 0.0516151L18.4355 0.4517C18.6449 0.55535 18.477 0.667293 18.477 0.667293Z" fill="#FBE801"/>
<path fill-rule="evenodd" clip-rule="evenodd" d="M1.44287 0.574219V2.19115L2.44206 1.54438C2.44206 1.54438 2.63278 1.01369 2.15806 0.804317L1.44287 0.574219Z" fill="#F0A123"/>
<path fill-rule="evenodd" clip-rule="evenodd" d="M1.44287 0.574219V0.671649L2.14977 0.903823C2.53742 1.04271 2.43377 1.54438 2.43377 1.54438C2.43377 1.54438 2.62448 1.01369 2.14977 0.804317L1.44287 0.574219Z" fill="#F7DE03"/>
<path fill-rule="evenodd" clip-rule="evenodd" d="M17.83 0.802249C17.3573 1.00955 17.546 1.54438 17.546 1.54438L18.5389 2.19115V0.574219L17.83 0.802249Z" fill="#F0A123"/>
<path fill-rule="evenodd" clip-rule="evenodd" d="M17.83 0.804317C17.3573 1.01162 17.546 1.54438 17.546 1.54438C17.546 1.54438 17.4423 1.04271 17.83 0.903823L18.5389 0.671649V0.574219L17.83 0.804317Z" fill="#F7DE03"/>
<path fill-rule="evenodd" clip-rule="evenodd" d="M19.9815 3.03125V18.8979C19.981 19.0432 19.9518 19.1869 19.8957 19.3209C19.8395 19.4549 19.7575 19.5765 19.6543 19.6787C19.5511 19.781 19.4287 19.8618 19.2942 19.9167C19.1597 19.9716 19.0157 19.9995 18.8704 19.9987H1.10905C0.963877 19.9995 0.819968 19.9716 0.685583 19.9167C0.551198 19.8618 0.428981 19.7809 0.325942 19.6786C0.222902 19.5763 0.141069 19.4547 0.0851357 19.3208C0.0292027 19.1868 0.000270578 19.0431 0 18.8979V3.03125H19.9815Z" fill="url(#paint0_linear_5153_80030)"/>
<path d="M19.9815 3.11719H0V3.37424H19.9815V3.11719Z" fill="#F7F3B7"/>
<path fill-rule="evenodd" clip-rule="evenodd" d="M14.1442 1.04689C14.2469 1.04607 14.3475 1.07576 14.4333 1.13221C14.519 1.18865 14.5861 1.2693 14.626 1.36393C14.6658 1.45855 14.6767 1.56287 14.6572 1.66368C14.6376 1.76448 14.5886 1.85721 14.5163 1.9301C14.444 2.00299 14.3517 2.05277 14.251 2.07311C14.1504 2.09344 14.046 2.08342 13.951 2.04432C13.8561 2.00522 13.7749 1.9388 13.7178 1.85349C13.6606 1.76818 13.6301 1.66781 13.6301 1.56514C13.6299 1.49735 13.6429 1.43018 13.6686 1.36745C13.6943 1.30472 13.7321 1.24766 13.7798 1.19954C13.8276 1.15141 13.8843 1.11317 13.9469 1.08697C14.0094 1.06078 14.0764 1.04716 14.1442 1.04689Z" fill="#AF8E2F"/>
<path fill-rule="evenodd" clip-rule="evenodd" d="M14.1442 1.04688C14.212 1.04715 14.2791 1.06077 14.3416 1.08696C14.4041 1.11315 14.4609 1.1514 14.5086 1.19952C14.5564 1.24765 14.5942 1.3047 14.6198 1.36743C14.6455 1.43016 14.6586 1.49734 14.6583 1.56512C14.6493 1.43733 14.5903 1.31824 14.494 1.23366C14.3978 1.14907 14.2721 1.1058 14.1442 1.11321C14.0808 1.10899 14.0171 1.11735 13.9569 1.1378C13.8967 1.15825 13.8411 1.19039 13.7933 1.23238C13.7455 1.27437 13.7065 1.32538 13.6785 1.38248C13.6505 1.43958 13.6341 1.50165 13.6301 1.56512C13.6299 1.49734 13.6429 1.43016 13.6686 1.36743C13.6943 1.3047 13.7321 1.24765 13.7799 1.19952C13.8276 1.1514 13.8843 1.11315 13.9469 1.08696C14.0094 1.06077 14.0765 1.04715 14.1442 1.04688Z" fill="#937A2D"/>
<path fill-rule="evenodd" clip-rule="evenodd" d="M5.83771 1.04688C5.94029 1.04647 6.04069 1.07651 6.12619 1.13321C6.21169 1.1899 6.27843 1.2707 6.31798 1.36536C6.35752 1.46002 6.36808 1.56429 6.34832 1.66495C6.32856 1.76562 6.27937 1.85816 6.20697 1.93084C6.13458 2.00353 6.04223 2.05309 5.94165 2.07326C5.84106 2.09342 5.73675 2.08328 5.64194 2.04412C5.54712 2.00496 5.46606 1.93853 5.40902 1.85326C5.35199 1.76799 5.32154 1.66771 5.32154 1.56513C5.32126 1.49717 5.33441 1.42982 5.36023 1.36696C5.38605 1.30409 5.42402 1.24695 5.47198 1.1988C5.51994 1.15065 5.57694 1.11244 5.6397 1.08637C5.70246 1.0603 5.76975 1.04688 5.83771 1.04688Z" fill="#AF8E2F"/>
<path fill-rule="evenodd" clip-rule="evenodd" d="M5.8377 1.04688C5.90549 1.04715 5.97255 1.06077 6.03507 1.08696C6.09759 1.11315 6.15435 1.1514 6.20209 1.19952C6.24982 1.24765 6.28761 1.3047 6.3133 1.36743C6.33899 1.43016 6.35207 1.49734 6.35179 1.56512C6.34274 1.43733 6.28371 1.31824 6.18749 1.23366C6.09127 1.14907 5.9656 1.1058 5.8377 1.11321C5.77408 1.10871 5.71019 1.11686 5.64973 1.13718C5.58927 1.1575 5.53344 1.18959 5.48545 1.2316C5.43746 1.27362 5.39826 1.32472 5.37013 1.38196C5.342 1.43921 5.32548 1.50146 5.32154 1.56512C5.32126 1.49716 5.33441 1.42982 5.36023 1.36695C5.38605 1.30409 5.42402 1.24694 5.47198 1.19879C5.51994 1.15064 5.57693 1.11243 5.63969 1.08636C5.70245 1.06029 5.76974 1.04687 5.8377 1.04688Z" fill="#937A2D"/>
<g style="mix-blend-mode:multiply" opacity="0.2">
<path d="M2.90218 3.40234H0V19.3851H2.90218V3.40234Z" fill="url(#paint1_radial_5153_80030)"/>
</g>
<g style="mix-blend-mode:multiply" opacity="0.5">
<path d="M18.5388 3.11862H1.44287V0.672495L2.75922 0.226802L17.2225 0.222656L18.5388 0.672495V3.11862Z" fill="url(#paint2_radial_5153_80030)"/>
</g>
<g style="mix-blend-mode:multiply" opacity="0.2">
<path d="M19.9818 3.40234H17.0796V19.3851H19.9818V3.40234Z" fill="url(#paint3_radial_5153_80030)"/>
</g>
<path d="M13.8436 16.7669H15.3797C15.9497 16.7669 16.3187 16.3523 16.4887 15.4194C16.6463 14.5239 16.439 14.1238 15.8668 14.1238H14.3307L14.5712 12.7826C14.8428 11.2486 15.6492 10.4919 16.9738 10.4919H17.2267C17.9605 10.4919 18.3648 10.3738 18.4207 10.0317C18.4431 9.7299 18.4108 9.42653 18.3254 9.13618C18.2752 8.84073 18.1816 8.55432 18.0476 8.28626C17.8693 7.97738 17.4609 7.82812 16.8183 7.82812C15.2283 7.82812 13.9161 8.26346 12.8796 9.14655C11.8432 10.0296 11.1985 11.205 10.9103 12.8054L10.6636 14.1238H7.44842C7.39659 14.1238 4.06116 14.4949 4.06116 14.4949L7.13125 14.9571L7.25563 15.4028L5.37751 15.5583L7.35099 15.8423L7.42976 16.203L1.54248 16.5285L7.94801 16.7669H10.1848L9.6064 20.0007H13.2714L13.8436 16.7669Z" fill="#2A55E5"/>
<g style="mix-blend-mode:multiply" opacity="0.5">
<g style="mix-blend-mode:multiply" opacity="0.5">
<path d="M16.8204 7.82866C15.1868 7.82866 13.9037 8.28057 12.8962 9.14501C11.8887 10.0094 11.2191 11.1662 10.931 12.7707L10.676 14.1243H7.46496L4.92969 14.398L10.9248 14.4394L10.9517 14.2321L11.1963 12.837C11.4783 11.2719 12.1271 10.1069 13.1242 9.25073C14.1213 8.39459 15.2739 8.03389 16.866 8.03389C17.4775 8.03389 17.8921 8.01523 18.0517 8.29508C18.0496 8.28679 17.8589 7.81 16.8204 7.82866ZM9.60635 20.0013H9.8489L10.4314 16.7632H10.1847L9.60635 20.0013ZM15.9165 14.1243H14.3245L14.2602 14.4539H16.4514C16.4054 14.3518 16.3299 14.2658 16.2346 14.207C16.1392 14.1483 16.0284 14.1195 15.9165 14.1243Z" fill="#B3B5B3"/>
</g>
</g>
<path fill-rule="evenodd" clip-rule="evenodd" d="M19.9818 2.93095L17.5066 1.25391V3.1196H19.9818V2.93095Z" fill="#F6E72F"/>
<path fill-rule="evenodd" clip-rule="evenodd" d="M0.000244141 3.1196H2.47332V1.25391L0.000244141 2.93095V3.1196Z" fill="#F6E72F"/>
<path fill-rule="evenodd" clip-rule="evenodd" d="M0.000244141 3.07399L2.47332 1.4156V1.25391L0.000244141 2.93717V3.07399Z" fill="#FDD537"/>
<path fill-rule="evenodd" clip-rule="evenodd" d="M19.9818 2.93095L17.5066 1.25391V1.41767L19.9818 3.07607V2.93095Z" fill="#FDD537"/>
<path d="M2.47516 3.03125H0V3.11624H2.47516V3.03125Z" fill="#F3DB0B"/>
<path d="M19.9815 3.03125H17.5063V3.11624H19.9815V3.03125Z" fill="#F3DB0B"/>
<path fill-rule="evenodd" clip-rule="evenodd" d="M14.8469 4.33457C14.8473 4.4306 14.8192 4.52459 14.7661 4.60463C14.7131 4.68468 14.6375 4.74717 14.5489 4.7842C14.4603 4.82124 14.3627 4.83114 14.2684 4.81266C14.1742 4.79418 14.0876 4.74814 14.0195 4.68038C13.9515 4.61263 13.9051 4.5262 13.8862 4.43205C13.8673 4.33789 13.8768 4.24025 13.9134 4.1515C13.9501 4.06274 14.0123 3.98686 14.0921 3.93347C14.1719 3.88007 14.2658 3.85157 14.3618 3.85157C14.4254 3.85129 14.4884 3.86358 14.5473 3.88773C14.6061 3.91189 14.6596 3.94742 14.7047 3.9923C14.7497 4.03718 14.7855 4.09052 14.8099 4.14926C14.8343 4.20799 14.8469 4.27097 14.8469 4.33457Z" fill="url(#paint4_linear_5153_80030)"/>
<path fill-rule="evenodd" clip-rule="evenodd" d="M6.04491 4.35131C6.0449 4.44406 6.01737 4.53472 5.9658 4.61181C5.91423 4.6889 5.84094 4.74894 5.75521 4.78434C5.66948 4.81974 5.57518 4.8289 5.48424 4.81065C5.39331 4.79241 5.30983 4.74758 5.2444 4.68185C5.17896 4.61612 5.1345 4.53245 5.11666 4.44144C5.09882 4.35042 5.10839 4.25616 5.14417 4.17059C5.17995 4.08502 5.24032 4.01199 5.31764 3.96076C5.39495 3.90953 5.48573 3.88241 5.57848 3.88282C5.63991 3.88282 5.70073 3.89495 5.75745 3.91852C5.81418 3.94209 5.86569 3.97663 5.90903 4.02016C5.95237 4.06369 5.98668 4.11536 6.01 4.17219C6.03332 4.22902 6.04518 4.28989 6.04491 4.35131Z" fill="url(#paint5_linear_5153_80030)"/>
<g opacity="0.25" filter="url(#filter0_f_5153_80030)">
<path d="M5.39556 4.37109C5.39163 4.44889 5.38965 4.52718 5.38965 4.60594C5.38965 7.13841 7.44263 9.19139 9.9751 9.19139C12.5076 9.19139 14.5606 7.13841 14.5606 4.60594C14.5606 4.52718 14.5586 4.44889 14.5546 4.37109H14.0225C14.0269 4.4488 14.0292 4.5271 14.0292 4.60594C14.0292 6.84495 12.2141 8.66003 9.9751 8.66003C7.73609 8.66003 5.92101 6.84495 5.92101 4.60594C5.92101 4.5271 5.92326 4.4488 5.9277 4.37109H5.39556Z" fill="black"/>
</g>
<path d="M9.97731 8.30168C8.8039 8.30968 7.66479 7.90626 6.75796 7.16154C5.88937 6.43599 5.39392 5.46583 5.39392 4.49774C5.38336 4.41188 5.39041 4.32477 5.41465 4.24172C5.43889 4.15867 5.4798 4.08144 5.53489 4.01474C5.59906 3.98341 5.67118 3.97219 5.74183 3.98255C5.81248 3.9929 5.87836 4.02436 5.93083 4.07278C5.93083 4.07278 6.02204 4.10802 6.02204 4.28008C6.02204 4.38995 6.02204 4.53299 6.02204 4.53299C6.02204 6.22662 7.86286 7.67978 9.97316 7.67978C12.6929 7.67978 13.9118 6.0359 13.9118 4.50396C13.9118 4.50396 13.8144 4.15156 14.0383 3.99401C14.6229 3.83232 14.5586 4.49982 14.5586 4.49982C14.5595 5.00244 14.4529 5.49944 14.2458 5.95745C14.0388 6.41546 13.7362 6.82388 13.3584 7.15532C12.5209 7.90574 11.3559 8.30168 9.97731 8.30168Z" fill="white"/>
<mask id="mask0_5153_80030" style="mask-type:alpha" maskUnits="userSpaceOnUse" x="5" y="3" width="10" height="6">
<path d="M9.97731 8.30168C8.8039 8.30968 7.66479 7.90626 6.75796 7.16154C5.88937 6.43599 5.39392 5.46583 5.39392 4.49774C5.38336 4.41188 5.39041 4.32477 5.41465 4.24172C5.43889 4.15867 5.4798 4.08144 5.53489 4.01474C5.59906 3.98341 5.67118 3.97219 5.74183 3.98255C5.81248 3.9929 5.87836 4.02436 5.93083 4.07278C5.93083 4.07278 6.02204 4.10802 6.02204 4.28008C6.02204 4.38995 6.02204 4.53299 6.02204 4.53299C6.02204 6.22662 7.86286 7.67978 9.97316 7.67978C12.6929 7.67978 13.9118 6.0359 13.9118 4.50396C13.9118 4.50396 13.8144 4.15156 14.0383 3.99401C14.6229 3.83232 14.5586 4.49982 14.5586 4.49982C14.5595 5.00244 14.4529 5.49944 14.2458 5.95745C14.0388 6.41546 13.7362 6.82388 13.3584 7.15532C12.5209 7.90574 11.3559 8.30168 9.97731 8.30168Z" fill="white"/>
</mask>
<g mask="url(#mask0_5153_80030)">
<g opacity="0.4">
<path d="M6.1422 4.36346C6.00438 4.28837 5.85223 4.24327 5.69575 4.23112C5.53927 4.21898 5.38199 4.24006 5.23423 4.29298L5.21143 4.23494C5.36808 4.17765 5.53521 4.15466 5.70151 4.16754C5.86781 4.18041 6.0294 4.22884 6.17537 4.30956L6.1422 4.36346Z" fill="#A6A7AB"/>
<path d="M5.2485 4.87802L5.21533 4.8262C5.35768 4.73923 5.51712 4.68402 5.68277 4.66434C5.84841 4.64466 6.01636 4.66098 6.17512 4.71218L6.15231 4.77022C6.00248 4.72414 5.84466 4.70993 5.689 4.72849C5.53334 4.74706 5.3833 4.798 5.2485 4.87802Z" fill="#A6A7AB"/>
<path d="M5.46638 5.46494L5.42285 5.41934C5.546 5.30665 5.69188 5.2217 5.85066 5.17021C6.00944 5.11871 6.17742 5.10188 6.34326 5.12083L6.33289 5.18302C6.17674 5.16623 6.01882 5.18267 5.86947 5.23126C5.72013 5.27985 5.58276 5.35949 5.46638 5.46494Z" fill="#A6A7AB"/>
<path d="M5.64863 5.98762L5.60303 5.94616C5.71776 5.82496 5.85744 5.73012 6.01242 5.6682C6.1674 5.60628 6.33398 5.57876 6.50064 5.58753V5.64972C6.34282 5.64274 6.18532 5.66924 6.03847 5.72747C5.89162 5.78571 5.75877 5.87437 5.64863 5.98762Z" fill="#A6A7AB"/>
<path d="M5.92255 6.50892L5.86865 6.47783C5.95777 6.33703 6.07605 6.21698 6.21552 6.12578C6.35499 6.03459 6.51239 5.97439 6.67712 5.94922V6.01141C6.52363 6.03721 6.37722 6.09479 6.24729 6.18046C6.11735 6.26614 6.00674 6.37801 5.92255 6.50892Z" fill="#A6A7AB"/>
<path d="M6.30402 6.92905L6.24805 6.90003C6.33053 6.75531 6.44288 6.62979 6.57763 6.53186C6.71238 6.43392 6.86645 6.3658 7.02957 6.33203V6.39422C6.87807 6.42798 6.73529 6.49298 6.61036 6.58508C6.48542 6.67717 6.38109 6.79433 6.30402 6.92905Z" fill="#A6A7AB"/>
<path d="M6.70599 7.31083L6.64795 7.28596C6.71927 7.13589 6.82182 7.00277 6.94873 6.89552C7.07564 6.78827 7.22399 6.70936 7.38386 6.66406L7.3963 6.72418C7.24648 6.76799 7.10758 6.84288 6.98864 6.94396C6.8697 7.04504 6.77339 7.17005 6.70599 7.31083Z" fill="#A6A7AB"/>
<path d="M7.13092 7.71854L7.0708 7.70403C7.11018 7.54218 7.18386 7.39069 7.28686 7.25979C7.38986 7.12889 7.51978 7.02165 7.66782 6.94531L7.69477 7.00336C7.556 7.0765 7.43411 7.17794 7.33699 7.30113C7.23986 7.42432 7.16966 7.56652 7.13092 7.71854Z" fill="#A6A7AB"/>
<path d="M7.6989 7.97565H7.63672C7.64336 7.80891 7.68588 7.64557 7.76136 7.49675C7.83684 7.34794 7.94352 7.21714 8.07412 7.11328L8.10935 7.16511C7.98759 7.26358 7.88807 7.38671 7.81732 7.52641C7.74658 7.66611 7.70622 7.81922 7.6989 7.97565Z" fill="#A6A7AB"/>
<path d="M8.13663 8.22134C8.13223 8.05436 8.16404 7.8884 8.22989 7.73489C8.29573 7.58137 8.39404 7.44393 8.51806 7.33203L8.55537 7.37971C8.44184 7.48576 8.35154 7.61421 8.29017 7.75693C8.2288 7.89965 8.19769 8.05355 8.19882 8.20891L8.13663 8.22134Z" fill="#A6A7AB"/>
<path d="M8.7003 8.40622C8.66441 8.24304 8.66435 8.07401 8.70014 7.91081C8.73593 7.74761 8.80672 7.59412 8.90761 7.46094L8.95529 7.50032C8.86323 7.62742 8.79902 7.7725 8.76687 7.92611C8.73472 8.07971 8.73534 8.23836 8.76871 8.39171L8.7003 8.40622Z" fill="#A6A7AB"/>
<path d="M9.32648 8.39777C9.25858 8.24513 9.22435 8.07965 9.22614 7.9126C9.22793 7.74554 9.26569 7.58084 9.33685 7.42969L9.39281 7.46078C9.32846 7.60384 9.29518 7.75893 9.29518 7.9158C9.29518 8.07268 9.32846 8.22776 9.39281 8.37082L9.32648 8.39777Z" fill="#A6A7AB"/>
<path d="M9.92548 8.53928C9.82951 8.40304 9.7644 8.24752 9.73468 8.08355C9.70497 7.91957 9.71136 7.75109 9.75341 7.58984L9.81145 7.6085C9.77463 7.76092 9.77017 7.91938 9.79838 8.07363C9.82659 8.22789 9.88684 8.37451 9.97523 8.50403L9.92548 8.53928Z" fill="#A6A7AB"/>
<path d="M10.4538 8.52755C10.3567 8.3918 10.29 8.23675 10.2582 8.07293C10.2263 7.9091 10.2301 7.74035 10.2693 7.57812L10.3273 7.59678C10.293 7.74977 10.2909 7.90825 10.3212 8.06209C10.3516 8.21593 10.4137 8.36175 10.5035 8.49024L10.4538 8.52755Z" fill="#A6A7AB"/>
<path d="M10.9514 8.43612C10.862 8.29566 10.8039 8.13762 10.781 7.97273C10.7582 7.80784 10.771 7.63996 10.8187 7.48047L10.8788 7.5012C10.8349 7.65145 10.8232 7.80929 10.8447 7.96436C10.8661 8.11942 10.9201 8.26819 11.0032 8.40088L10.9514 8.43612Z" fill="#A6A7AB"/>
<path d="M11.505 8.3497C11.4039 8.21621 11.333 8.06236 11.2972 7.8988C11.2615 7.73523 11.2616 7.56585 11.2977 7.40234L11.3578 7.421C11.3248 7.57424 11.3241 7.73268 11.3559 7.88618C11.3877 8.03968 11.4512 8.18484 11.5423 8.31239L11.505 8.3497Z" fill="#A6A7AB"/>
<path d="M12.0732 8.18228C11.9497 8.07017 11.852 7.9326 11.7868 7.77906C11.7217 7.62552 11.6907 7.45967 11.6959 7.29297H11.7581C11.7567 7.44836 11.7877 7.60234 11.8491 7.7451C11.9104 7.88786 12.0009 8.01627 12.1146 8.12216L12.0732 8.18228Z" fill="#A6A7AB"/>
<path d="M12.5562 7.88811C12.4294 7.78105 12.3269 7.64822 12.2554 7.49846C12.1839 7.3487 12.1451 7.18544 12.1416 7.01953H12.2038C12.2073 7.17831 12.2449 7.33448 12.3139 7.47752C12.3829 7.62056 12.4818 7.74714 12.6039 7.84873L12.5562 7.88811Z" fill="#A6A7AB"/>
<path d="M13.0142 7.55576C12.8777 7.4608 12.7632 7.33761 12.6785 7.19455C12.5937 7.0515 12.5407 6.8919 12.5229 6.72656H12.5851C12.603 6.8825 12.6536 7.03289 12.7337 7.16792C12.8137 7.30295 12.9213 7.41957 13.0495 7.51015L13.0142 7.55576Z" fill="#A6A7AB"/>
<path d="M13.4908 7.2104C13.3377 7.14451 13.2009 7.046 13.09 6.92175C12.979 6.79751 12.8964 6.65053 12.8481 6.49107L12.9083 6.47656C12.9564 6.62579 13.0353 6.76324 13.1399 6.88001C13.2446 6.99679 13.3726 7.09028 13.5156 7.15443L13.4908 7.2104Z" fill="#A6A7AB"/>
<path d="M13.8558 6.706C13.8289 6.706 13.1676 6.57748 12.9458 6.11106L13.0018 6.08203C13.2091 6.52151 13.86 6.64174 13.8683 6.64174L13.8558 6.706Z" fill="#A6A7AB"/>
<path d="M14.3055 6.28085C14.2744 6.28085 13.5799 6.16269 13.3291 5.71286L13.383 5.67969C13.6214 6.10672 14.3075 6.21866 14.3138 6.21866L14.3055 6.28085Z" fill="#A6A7AB"/>
<path d="M14.4259 5.73419C14.266 5.73724 14.1073 5.7065 13.9601 5.64399C13.8129 5.58147 13.6806 5.48859 13.5718 5.37142L13.6195 5.33203C13.7289 5.44454 13.8607 5.53291 14.0064 5.59146C14.1521 5.65001 14.3084 5.67744 14.4652 5.672V5.73419H14.4259Z" fill="#A6A7AB"/>
<path d="M14.3637 5.1562C14.0985 5.16711 13.8373 5.08903 13.6216 4.93439L13.6589 4.88672C14.0424 5.18938 14.6539 5.06914 14.6602 5.06707L14.6809 5.12719C14.5763 5.1468 14.4701 5.15652 14.3637 5.1562Z" fill="#A6A7AB"/>
<path d="M14.2064 4.65819C14.0383 4.65813 13.8712 4.63226 13.7109 4.58148L13.7296 4.52344C14.027 4.62239 14.3485 4.62239 14.6459 4.52344L14.6728 4.57941C14.524 4.63587 14.3655 4.66264 14.2064 4.65819Z" fill="#A6A7AB"/>
<path d="M14.1438 4.20737C13.9839 4.20841 13.8251 4.18032 13.6753 4.12445L13.6981 4.06641C13.9947 4.17021 14.3177 4.17021 14.6143 4.06641L14.6371 4.12445C14.479 4.18155 14.3119 4.20964 14.1438 4.20737Z" fill="#A6A7AB"/>
<path d="M6.17308 4.3945C6.03401 4.31875 5.88054 4.27313 5.72267 4.26063C5.56481 4.24813 5.40607 4.26902 5.25682 4.32194L5.24023 4.2784C5.39595 4.22319 5.56156 4.20148 5.72625 4.2147C5.89093 4.22792 6.05096 4.27576 6.19588 4.35511L6.17308 4.3945Z" fill="white"/>
<path d="M5.27988 4.90913L5.25293 4.86974C5.39504 4.78504 5.55335 4.73112 5.71762 4.71148C5.88188 4.69184 6.04844 4.70692 6.20651 4.75573L6.18992 4.80133C6.03912 4.75473 5.88022 4.74025 5.72348 4.75881C5.56674 4.77738 5.41562 4.82858 5.27988 4.90913Z" fill="white"/>
<path d="M5.49557 5.49657L5.4624 5.4634C5.5853 5.35237 5.73027 5.26856 5.88781 5.21747C6.04536 5.16638 6.21193 5.14917 6.37659 5.16695V5.21256C6.21799 5.19447 6.05735 5.21045 5.90541 5.25943C5.75348 5.3084 5.61375 5.38925 5.49557 5.49657Z" fill="white"/>
<path d="M5.67782 6.02327L5.64258 5.99218C5.75756 5.8739 5.89619 5.78119 6.04943 5.72011C6.20267 5.65903 6.36706 5.63095 6.53189 5.6377V5.6833C6.37368 5.6772 6.21595 5.70431 6.06886 5.76286C5.92176 5.82141 5.78855 5.91012 5.67782 6.02327Z" fill="white"/>
<path d="M5.94954 6.54153L5.91016 6.51666C5.99946 6.37728 6.11733 6.25846 6.25599 6.16804C6.39465 6.07763 6.55093 6.01769 6.71448 5.99219V6.03987C6.55884 6.06491 6.41025 6.12255 6.27843 6.209C6.14661 6.29545 6.03454 6.40877 5.94954 6.54153Z" fill="white"/>
<path d="M6.33101 6.96373L6.28955 6.94092C6.3722 6.79776 6.48386 6.67346 6.61738 6.576C6.7509 6.47854 6.90332 6.41008 7.06486 6.375V6.42267C6.91147 6.45645 6.76689 6.52206 6.64047 6.61527C6.51406 6.70847 6.40863 6.82719 6.33101 6.96373Z" fill="white"/>
<path d="M6.73299 7.34758L6.68945 7.32893C6.76077 7.17996 6.86257 7.04762 6.98827 6.9405C7.11397 6.83337 7.26077 6.75383 7.41916 6.70703L7.42952 6.75264C7.27832 6.79767 7.13822 6.87388 7.01825 6.97635C6.89829 7.07882 6.80111 7.20528 6.73299 7.34758Z" fill="white"/>
<path d="M7.15791 7.75321L7.1123 7.74285C7.15237 7.58239 7.2259 7.43222 7.32807 7.30218C7.43025 7.17214 7.55876 7.06517 7.70517 6.98828L7.7259 7.02974C7.58578 7.10375 7.4628 7.20642 7.36495 7.33106C7.26709 7.4557 7.19655 7.59953 7.15791 7.75321Z" fill="white"/>
<path d="M7.7259 8.01239H7.67822C7.68628 7.84706 7.72924 7.68529 7.80426 7.53774C7.87929 7.39018 7.98469 7.26017 8.11353 7.15625L8.14048 7.19356C8.01754 7.29309 7.91705 7.4175 7.84559 7.55863C7.77414 7.69975 7.73335 7.85439 7.7259 8.01239Z" fill="white"/>
<path d="M8.17791 8.25809C8.17508 8.09263 8.20723 7.92844 8.27224 7.77626C8.33726 7.62408 8.43368 7.48734 8.55519 7.375L8.58629 7.41232C8.46981 7.51947 8.37727 7.65001 8.31476 7.79541C8.25224 7.94081 8.22115 8.09777 8.22351 8.25602L8.17791 8.25809Z" fill="white"/>
<path d="M8.74192 8.44297C8.70699 8.28139 8.70647 8.11426 8.7404 7.95246C8.77433 7.79067 8.84194 7.63784 8.93885 7.50391L8.97616 7.53292C8.88283 7.66099 8.81776 7.80742 8.78524 7.96251C8.75272 8.1176 8.7535 8.27783 8.78752 8.4326L8.74192 8.44297Z" fill="white"/>
<path d="M9.36555 8.43245C9.29985 8.28063 9.267 8.11664 9.26914 7.95123C9.27128 7.78581 9.30838 7.62272 9.37799 7.47266L9.41945 7.49546C9.35352 7.63928 9.31853 7.79533 9.31675 7.95353C9.31496 8.11172 9.34642 8.26853 9.40908 8.41379L9.36555 8.43245Z" fill="white"/>
<path d="M9.96692 8.57419C9.87316 8.43769 9.80936 8.28289 9.77971 8.11997C9.75005 7.95705 9.75522 7.78969 9.79488 7.62891L9.8384 7.64342C9.80043 7.79688 9.79558 7.95667 9.82418 8.11216C9.85277 8.26764 9.91415 8.41526 10.0042 8.54517L9.96692 8.57419Z" fill="white"/>
<path d="M10.4953 8.5604C10.3997 8.42511 10.3339 8.27112 10.3021 8.10855C10.2703 7.94598 10.2733 7.77852 10.3108 7.61719L10.3544 7.6317C10.319 7.78576 10.3166 7.94555 10.3473 8.1006C10.3781 8.25564 10.4412 8.40245 10.5326 8.53138L10.4953 8.5604Z" fill="white"/>
<path d="M10.9932 8.46896C10.9061 8.32871 10.8494 8.1717 10.8269 8.00813C10.8044 7.84457 10.8166 7.6781 10.8626 7.51953L10.904 7.53404C10.8605 7.68627 10.8494 7.84595 10.8716 8.00272C10.8937 8.1595 10.9486 8.30987 11.0326 8.44409L10.9932 8.46896Z" fill="white"/>
<path d="M11.5753 8.3701C11.4708 8.24194 11.3962 8.09203 11.3571 7.93134C11.318 7.77065 11.3154 7.60326 11.3493 7.44141L11.3949 7.45592C11.3627 7.61035 11.3656 7.77003 11.4032 7.92321C11.4409 8.0764 11.5125 8.21919 11.6126 8.34108L11.5753 8.3701Z" fill="white"/>
<path d="M12.1475 8.20683C12.0182 8.10056 11.914 7.96703 11.8424 7.81581C11.7707 7.66458 11.7333 7.49938 11.7329 7.33203H11.7806C11.781 7.49074 11.8165 7.64739 11.8846 7.79075C11.9527 7.93411 12.0517 8.06062 12.1744 8.16123L12.1475 8.20683Z" fill="white"/>
<path d="M12.635 7.87216C12.4979 7.78054 12.3846 7.6575 12.3045 7.51328C12.2245 7.36906 12.18 7.20783 12.1748 7.04297H12.2225C12.2286 7.19794 12.2714 7.34924 12.3474 7.4844C12.4235 7.61956 12.5306 7.7347 12.6599 7.82034L12.635 7.87216Z" fill="white"/>
<path d="M13.1199 7.55799C13.1199 7.55799 12.5851 7.27191 12.5581 6.75781H12.5996C12.6244 7.24497 13.1302 7.51653 13.1344 7.5186L13.1199 7.55799Z" fill="white"/>
<path d="M13.6361 7.22722C13.6112 7.21686 13.0141 6.98261 12.8877 6.48509L12.9354 6.47266C13.0535 6.94737 13.6464 7.17954 13.6526 7.18162L13.6361 7.22722Z" fill="white"/>
<path d="M13.9614 6.66207C13.9303 6.66207 13.2109 6.53769 12.9912 6.07334L13.0347 6.05469C13.242 6.49623 13.9614 6.61439 13.9676 6.61647L13.9614 6.66207Z" fill="white"/>
<path d="M14.3139 6.27495L14.2268 6.2397C14.0195 6.15678 13.5407 5.96607 13.4287 5.76499L13.4702 5.74219C13.5738 5.92876 14.0444 6.1174 14.2434 6.19617C14.3553 6.23971 14.3574 6.24178 14.3512 6.26459C14.3497 6.26799 14.3475 6.27103 14.3447 6.27347C14.3419 6.27591 14.3386 6.27769 14.335 6.27869C14.3314 6.27968 14.3277 6.27986 14.324 6.27921C14.3204 6.27856 14.3169 6.27711 14.3139 6.27495Z" fill="white"/>
<path d="M14.5025 5.76082V5.72765L14.3429 5.68619C14.0982 5.62607 13.721 5.53279 13.6152 5.40219L13.6505 5.37109C13.7521 5.49133 14.1293 5.5784 14.3553 5.64266C14.5812 5.70692 14.5771 5.69655 14.575 5.72765C14.573 5.75874 14.5336 5.75874 14.5025 5.76082Z" fill="white"/>
<path d="M14.6019 5.14528V5.11833L14.4174 5.10382C14.1687 5.08931 13.7955 5.0665 13.667 4.967L13.696 4.92969C13.81 5.0209 14.1915 5.0437 14.4195 5.05821C14.6475 5.07272 14.6579 5.07272 14.662 5.10382C14.6662 5.13491 14.6247 5.13906 14.6019 5.14528Z" fill="white"/>
<path d="M14.1935 4.7175C14.0371 4.72028 13.8825 4.68393 13.7437 4.61177L13.7644 4.57031C13.909 4.63435 14.0654 4.66744 14.2236 4.66744C14.3817 4.66744 14.5381 4.63435 14.6827 4.57031L14.7035 4.61385C14.5416 4.68061 14.3685 4.71579 14.1935 4.7175Z" fill="white"/>
<path d="M14.1608 4.26046C14.0045 4.26197 13.8502 4.2257 13.7109 4.15474L13.7317 4.11328C13.8762 4.17745 14.0327 4.2106 14.1908 4.2106C14.349 4.2106 14.5054 4.17745 14.65 4.11328L14.6707 4.15474C14.5097 4.22419 14.3362 4.26016 14.1608 4.26046Z" fill="white"/>
</g>
</g>
<path d="M36.7811 5.5662C36.8261 5.6183 36.8592 5.67961 36.8779 5.74583C36.8967 5.81205 36.9008 5.88159 36.8899 5.94955L35.7847 12.9966C35.7752 13.1176 35.7697 13.1937 35.7697 13.2413C35.7697 13.4792 35.8146 13.6409 35.9057 13.7252C35.9951 13.7892 36.0978 13.8324 36.2061 13.8516C36.3094 13.8651 36.4052 13.913 36.478 13.9876C36.5271 14.0369 36.5647 14.0965 36.5882 14.1621C36.6117 14.2276 36.6205 14.2975 36.6139 14.3668L36.5473 14.9989C36.5448 15.0584 36.5297 15.1167 36.503 15.1699C36.4763 15.2231 36.4385 15.27 36.3923 15.3075C36.301 15.3686 36.2023 15.4179 36.0987 15.4543C35.8746 15.5345 35.6403 15.5825 35.4027 15.5971C34.8073 15.5971 34.3464 15.4611 34.0324 15.1893C33.7184 14.9174 33.5607 14.5245 33.5607 14.0093C33.5618 13.857 33.5759 13.7052 33.6029 13.5553C33.6137 13.486 34.8046 5.87886 34.8168 5.79594C34.8334 5.68268 34.8902 5.57918 34.9768 5.50432C35.0634 5.42945 35.174 5.38821 35.2885 5.38812H36.4154C36.4858 5.38845 36.5553 5.40463 36.6186 5.43546C36.6819 5.46629 36.7374 5.51097 36.7811 5.5662ZM40.0287 8.12184H38.9072C38.7926 8.12165 38.6819 8.16278 38.5952 8.2377C38.5085 8.31262 38.4518 8.41628 38.4355 8.52965L37.4322 14.8984C37.4221 14.9664 37.4267 15.0359 37.4457 15.102C37.4648 15.1681 37.4977 15.2294 37.5424 15.2817C37.5871 15.334 37.6425 15.3761 37.7049 15.4052C37.7673 15.4343 37.8351 15.4496 37.9039 15.4503H39.0254C39.14 15.4505 39.2508 15.4093 39.3374 15.3344C39.4241 15.2595 39.4808 15.1558 39.4971 15.0424L40.5004 8.67239C40.5112 8.60422 40.5071 8.53452 40.4883 8.46809C40.4696 8.40166 40.4367 8.34009 40.3918 8.28762C40.347 8.23515 40.2913 8.19303 40.2286 8.16418C40.1659 8.13532 40.0977 8.12041 40.0287 8.12048V8.12184ZM39.6467 7.49381C40.1184 7.49381 40.4718 7.3701 40.6961 7.12949C40.9277 6.87285 41.0493 6.53553 41.0346 6.19016C41.044 6.06647 41.0264 5.94222 40.983 5.82602C40.9395 5.70983 40.8713 5.60447 40.7831 5.51727C40.6146 5.36773 40.3549 5.29297 40.011 5.29297C39.5406 5.29297 39.1872 5.41667 38.9629 5.65864C38.7309 5.91514 38.6089 6.25243 38.6231 6.59797C38.6126 6.72277 38.6298 6.84833 38.6732 6.96578C38.7167 7.08323 38.7854 7.1897 38.8745 7.27766C39.0458 7.4204 39.2987 7.49381 39.6467 7.49381ZM56.0639 8.30943C56.0192 8.25037 55.9615 8.20238 55.8952 8.16914C55.829 8.13591 55.756 8.11833 55.6819 8.11776H54.4952C54.3922 8.11812 54.292 8.15163 54.2095 8.21332C54.127 8.27501 54.0666 8.36161 54.0371 8.46032C53.9011 8.87825 53.7105 9.27637 53.4702 9.64435C53.0814 10.2669 52.762 10.653 52.4915 10.827L52.448 10.8474C52.3515 10.895 52.2033 10.967 51.6799 11.0595L51.6147 11.069L52.4303 5.94683C52.4409 5.87863 52.4366 5.80896 52.4178 5.74256C52.3989 5.67616 52.366 5.6146 52.3212 5.56209C52.2765 5.50957 52.2209 5.46733 52.1583 5.43825C52.0957 5.40917 52.0276 5.39392 51.9586 5.39356H50.8249C50.7106 5.3937 50.6001 5.43498 50.5137 5.50987C50.4274 5.58476 50.3709 5.68823 50.3545 5.80138L48.9217 14.8943C48.9109 14.9623 48.915 15.0319 48.9337 15.0982C48.9523 15.1646 48.9851 15.2261 49.0298 15.2785C49.0745 15.331 49.13 15.3731 49.1926 15.4021C49.2551 15.431 49.3232 15.4461 49.3921 15.4462H50.5272C50.6416 15.4461 50.7523 15.4049 50.8388 15.33C50.9254 15.2551 50.9822 15.1516 50.9989 15.0384L51.3686 12.673H52.0796L53.0583 15.1444C53.0931 15.2335 53.1541 15.31 53.2332 15.3639C53.3123 15.4178 53.4058 15.4464 53.5015 15.4462H54.7317C54.858 15.4458 54.9791 15.3954 55.0682 15.306C55.1574 15.2165 55.2075 15.0954 55.2075 14.969C55.208 14.9031 55.1945 14.8378 55.1681 14.7774L54.0466 11.89L54.0711 11.8683C54.619 11.3489 55.0945 10.7582 55.4848 10.112C55.7648 9.6844 55.9853 9.22066 56.14 8.73356C56.1606 8.66242 56.1645 8.58748 56.1513 8.51461C56.1381 8.44173 56.1082 8.37291 56.0639 8.31351V8.30943ZM74.1043 8.11776H73.2152L73.4123 6.85218C73.4216 6.78466 73.4164 6.71594 73.397 6.6506C73.3776 6.58527 73.3444 6.52485 73.2998 6.47336C73.2551 6.42188 73.2 6.38053 73.138 6.35209C73.0761 6.32364 73.0088 6.30876 72.9406 6.30843H72.0435C71.9406 6.30943 71.8407 6.34318 71.7584 6.40478C71.676 6.46637 71.6154 6.55262 71.5853 6.65099L71.1531 8.12456H70.6623C70.5488 8.12412 70.4388 8.1643 70.3523 8.23785C70.2658 8.31139 70.2085 8.41344 70.1906 8.52558L70.0805 9.20527C70.0695 9.27342 70.0734 9.34316 70.092 9.40966C70.1105 9.47616 70.1433 9.53784 70.188 9.59044C70.2327 9.64304 70.2883 9.68531 70.351 9.71433C70.4136 9.74335 70.4818 9.75843 70.5508 9.75853H70.8486L70.3198 13.1475C70.2811 13.3683 70.262 13.5921 70.2627 13.8163C70.2627 14.4185 70.4217 14.8562 70.748 15.1539C71.0742 15.4516 71.5636 15.5998 72.2161 15.5998C72.559 15.581 72.898 15.5179 73.2248 15.4122L73.3852 15.3565C73.4056 15.3485 73.4255 15.3394 73.445 15.3293C73.5116 15.2924 73.5684 15.2403 73.611 15.1772C73.6535 15.1141 73.6805 15.0419 73.6897 14.9663L73.7712 14.2635C73.779 14.1903 73.7701 14.1164 73.7451 14.0471C73.7201 13.9779 73.6798 13.9152 73.6271 13.8639C73.5962 13.8347 73.5615 13.81 73.5238 13.7905C73.5004 13.7769 73.4759 13.7655 73.4504 13.7565C73.3748 13.7417 73.2975 13.7376 73.2207 13.7442H73.0943C73.0425 13.7452 72.9907 13.7429 72.9393 13.7374C72.8271 13.7219 72.7201 13.6805 72.6266 13.6165C72.5872 13.5798 72.4649 13.471 72.4649 13.0727C72.4649 13.0346 72.4649 12.9748 72.4785 12.8851L72.9638 9.75853H73.9697C74.0802 9.75868 74.1873 9.72037 74.2726 9.65018C74.3579 9.57998 74.4162 9.48228 74.4373 9.37383L74.5733 8.69414C74.5864 8.62514 74.5843 8.5541 74.5669 8.48604C74.5495 8.41798 74.5174 8.35458 74.4727 8.30035C74.4281 8.24611 74.3721 8.20237 74.3086 8.17223C74.2452 8.14208 74.1759 8.12627 74.1056 8.12592L74.1043 8.11776ZM47.8465 8.76075C48.242 9.29498 48.4432 10.0005 48.4432 10.8569C48.4448 11.4121 48.367 11.9646 48.2121 12.4977C48.0523 13.0371 47.8097 13.5484 47.493 14.0134C47.1419 14.5163 46.6627 14.9162 46.1051 15.1716C45.4408 15.4758 44.7163 15.6255 43.9858 15.6093C43.5872 15.6029 43.1894 15.5706 42.795 15.5128L42.7474 15.506L42.6604 16.3678C42.6604 16.3787 42.6604 16.3882 42.6604 16.3964L42.4117 17.9135C42.3938 18.0252 42.3366 18.1269 42.2504 18.2002C42.1641 18.2735 42.0545 18.3136 41.9413 18.3131H40.8171C40.7481 18.3132 40.6799 18.2983 40.6172 18.2694C40.5545 18.2406 40.4988 18.1984 40.4539 18.146C40.4091 18.0935 40.3762 18.0319 40.3574 17.9655C40.3387 17.8991 40.3346 17.8294 40.3454 17.7612L41.8122 8.51742C41.8285 8.40428 41.885 8.3008 41.9714 8.22591C42.0578 8.15103 42.1682 8.10974 42.2825 8.10961H43.0111C43.0753 8.10955 43.1387 8.12246 43.1977 8.14755C43.2567 8.17264 43.31 8.2094 43.3545 8.25562C43.3989 8.30183 43.4336 8.35656 43.4563 8.4165C43.4791 8.47643 43.4895 8.54036 43.4869 8.60442L43.4597 9.38742L43.5467 9.27867C44.0233 8.73694 44.6322 8.32805 45.3139 8.09193C45.5916 8.0026 45.8814 7.95675 46.1731 7.95599C46.899 7.96551 47.4482 8.22787 47.8465 8.76483V8.76075ZM46.3117 11.228C46.325 10.8681 46.2508 10.5104 46.0956 10.1854C46.0431 10.0606 45.9554 9.95382 45.8431 9.87823C45.7308 9.80264 45.5988 9.76151 45.4635 9.75989C45.1617 9.75989 44.811 9.95429 44.4235 10.3376C44.0258 10.7358 43.6805 11.183 43.3959 11.6685L43.075 13.7075L43.1131 13.7198C43.4826 13.8299 43.8667 13.8831 44.2523 13.8775C44.9428 13.8775 45.4648 13.5974 45.8047 13.0455C46.1419 12.4997 46.3177 11.8696 46.3117 11.228ZM69.0678 8.03892C68.6031 8.17006 68.1679 8.38927 67.7859 8.68462C67.4712 8.94024 67.1759 9.21877 66.9023 9.51792L66.8153 9.61308L66.8615 8.62209C66.8644 8.5572 66.8538 8.49242 66.8304 8.43182C66.807 8.37122 66.7713 8.31613 66.7256 8.27001C66.6809 8.22336 66.6273 8.18619 66.568 8.16073C66.5087 8.13527 66.4448 8.12204 66.3803 8.12184H65.6462C65.5317 8.12193 65.4211 8.16317 65.3345 8.23803C65.2479 8.3129 65.1911 8.4164 65.1745 8.52965L64.1726 14.8984C64.1621 14.9663 64.1663 15.0357 64.185 15.1019C64.2038 15.1681 64.2366 15.2294 64.2813 15.2817C64.326 15.334 64.3814 15.376 64.4439 15.4049C64.5063 15.4337 64.5742 15.4487 64.643 15.4489H65.7781C65.8925 15.449 66.0031 15.4079 66.0895 15.3329C66.1759 15.258 66.2323 15.1543 66.2484 15.0411L66.7786 11.6494C67.0931 11.2142 67.4898 10.8448 67.9463 10.5619C68.2742 10.3497 68.6419 10.2063 69.027 10.1405C69.1241 10.1249 69.2141 10.0797 69.2847 10.0111C69.3552 9.94253 69.4029 9.85385 69.4212 9.75717L69.6414 8.59083C69.6566 8.51315 69.6521 8.43291 69.6284 8.3574C69.6047 8.2819 69.5624 8.21354 69.5055 8.15854C69.448 8.10414 69.378 8.06476 69.3016 8.0439C69.2253 8.02303 69.1449 8.02132 69.0678 8.03892ZM63.8505 8.81376L62.8731 15.0438C62.8564 15.1571 62.7996 15.2606 62.713 15.3354C62.6265 15.4103 62.5158 15.4515 62.4014 15.4516H61.6741C61.6101 15.4518 61.5468 15.439 61.4879 15.414C61.429 15.389 61.3758 15.3523 61.3315 15.3062C61.2867 15.2599 61.2516 15.2052 61.2282 15.1452C61.2049 15.0852 61.1938 15.0212 61.1956 14.9568L61.2241 14.1847L61.1385 14.2798C60.9517 14.4832 60.7494 14.6718 60.5336 14.844C60.2056 15.0907 59.8457 15.2919 59.4637 15.4421C59.1586 15.552 58.8365 15.6076 58.5122 15.6066C57.7795 15.6066 57.2303 15.3456 56.8333 14.8086C56.4364 14.2717 56.2366 13.5702 56.2366 12.7111C56.2367 12.2726 56.2823 11.8352 56.3725 11.4061C56.4677 10.9629 56.6251 10.5355 56.8401 10.1364C57.0542 9.72509 57.3338 9.35135 57.668 9.0299C58.0373 8.69003 58.4728 8.42996 58.9472 8.26593C59.514 8.06344 60.1125 7.964 60.7144 7.97231C61.6394 7.98544 62.5611 8.08603 63.4671 8.27273C63.5892 8.29466 63.6977 8.36365 63.7694 8.46484C63.8411 8.56603 63.8702 8.69133 63.8505 8.81376ZM61.6061 9.85777L61.5681 9.84553C61.1977 9.73769 60.8133 9.68547 60.4275 9.69056C59.7383 9.69056 59.2163 9.96924 58.8751 10.5211C58.5388 11.0678 58.3635 11.6982 58.3694 12.34C58.3568 12.6997 58.4304 13.0572 58.5842 13.3826C58.6373 13.5074 58.7253 13.6141 58.8378 13.6899C58.9502 13.7656 59.0821 13.8072 59.2177 13.8095C59.5195 13.8095 59.8702 13.6137 60.2576 13.2318C60.6546 12.8328 60.9995 12.3852 61.284 11.8996L61.6061 9.85777ZM33.5798 6.82771L33.7157 5.94683C33.7252 5.87928 33.7201 5.81046 33.7008 5.74504C33.6815 5.67961 33.6484 5.61909 33.6036 5.56755C33.5589 5.51602 33.5037 5.47467 33.4417 5.4463C33.3796 5.41793 33.3122 5.40319 33.244 5.40308H27.8962C27.7819 5.40321 27.6714 5.4445 27.5851 5.51939C27.4987 5.59427 27.4422 5.69775 27.4258 5.81089L25.9876 14.8916C25.977 14.9595 25.9813 15.0289 26 15.0951C26.0188 15.1613 26.0516 15.2226 26.0963 15.2749C26.141 15.3272 26.1964 15.3692 26.2588 15.3981C26.3213 15.4269 26.3892 15.4419 26.458 15.4421H27.6923C27.8068 15.4423 27.9176 15.4012 28.0043 15.3262C28.0909 15.2513 28.1476 15.1477 28.164 15.0343L28.7186 11.5108H31.7772C31.8916 11.5109 32.0022 11.4697 32.0886 11.3948C32.1751 11.3199 32.2315 11.2162 32.2476 11.103L32.374 10.3349C32.3848 10.2667 32.3807 10.1969 32.3619 10.1304C32.3432 10.0639 32.3103 10.0023 32.2655 9.9497C32.2207 9.89713 32.165 9.85489 32.1023 9.82588C32.0396 9.79687 31.9714 9.78177 31.9023 9.78164H29.0136L29.3942 7.23144H33.1094C33.2233 7.23202 33.3335 7.19151 33.4199 7.11734C33.5063 7.04318 33.5631 6.94034 33.5798 6.82771Z" fill="white"/>
<defs>
<filter id="filter0_f_5153_80030" x="4.38965" y="3.37109" width="11.1709" height="6.82031" filterUnits="userSpaceOnUse" color-interpolation-filters="sRGB">
<feFlood flood-opacity="0" result="BackgroundImageFix"/>
<feBlend mode="normal" in="SourceGraphic" in2="BackgroundImageFix" result="shape"/>
<feGaussianBlur stdDeviation="0.5" result="effect1_foregroundBlur_5153_80030"/>
</filter>
<linearGradient id="paint0_linear_5153_80030" x1="9.98973" y1="19.9987" x2="9.98973" y2="3.03125" gradientUnits="userSpaceOnUse">
<stop offset="0.01" stop-color="#FFCC04"/>
<stop offset="0.4" stop-color="#F6E72F"/>
<stop offset="1" stop-color="#F6E72F"/>
</linearGradient>
<radialGradient id="paint1_radial_5153_80030" cx="0" cy="0" r="1" gradientUnits="userSpaceOnUse" gradientTransform="translate(-0.082588 11.476) rotate(-90) scale(11.9361 3.79473)">
<stop stop-color="#F5A620"/>
<stop offset="1" stop-color="white" stop-opacity="0"/>
</radialGradient>
<radialGradient id="paint2_radial_5153_80030" cx="0" cy="0" r="1" gradientUnits="userSpaceOnUse" gradientTransform="translate(9.95041 3.12899) rotate(90) scale(2.17664 15.6839)">
<stop stop-color="#F4A41F"/>
<stop offset="1" stop-color="white"/>
</radialGradient>
<radialGradient id="paint3_radial_5153_80030" cx="0" cy="0" r="1" gradientUnits="userSpaceOnUse" gradientTransform="translate(19.9009 11.4207) rotate(-90) scale(12.0233 3.82248)">
<stop stop-color="#F5A620"/>
<stop offset="1" stop-color="white" stop-opacity="0"/>
</radialGradient>
<linearGradient id="paint4_linear_5153_80030" x1="14.3639" y1="3.90546" x2="14.3639" y2="4.88184" gradientUnits="userSpaceOnUse">
<stop stop-color="#F6E72F"/>
<stop offset="1" stop-color="#F5A620"/>
</linearGradient>
<linearGradient id="paint5_linear_5153_80030" x1="5.57841" y1="3.93487" x2="5.57841" y2="4.87787" gradientUnits="userSpaceOnUse">
<stop stop-color="#F6E72F"/>
<stop offset="1" stop-color="#F5A620"/>
</linearGradient>
</defs>
</svg>
