<svg width="80" height="28" viewBox="0 0 80 28" fill="none" xmlns="http://www.w3.org/2000/svg">
<title>Flipkart Grocery Logo</title>
<g opacity="0.3">
<path opacity="0.14" d="M15.3446 6.24085V7.43516C15.3446 7.4628 15.3489 7.49044 15.3548 7.51663C15.3562 7.5239 15.3592 7.53263 15.3606 7.5399C15.3665 7.55881 15.3723 7.57627 15.3811 7.59373C15.384 7.601 15.3869 7.60827 15.3913 7.61555C15.403 7.63591 15.4147 7.65482 15.4293 7.67373C15.4307 7.67664 15.4322 7.6781 15.4337 7.68101C15.4497 7.70137 15.4687 7.71883 15.4877 7.73483C15.495 7.74065 15.5023 7.74647 15.5096 7.75229C15.5242 7.76247 15.5374 7.77265 15.5534 7.78138C15.5622 7.7872 15.5709 7.79157 15.5797 7.79593C15.5972 7.80611 15.6162 7.81339 15.6352 7.82066C15.6411 7.82357 15.6469 7.82648 15.6542 7.82793C15.7112 7.8483 15.7711 7.85848 15.8339 7.85848V8.13051V8.59601V8.86804V8.92623C14.8713 9.319 14.1936 10.2616 14.1936 11.3614V13.0154H20.2142L20.2712 13.0256H20.2989V11.3599C20.2989 10.2602 19.6212 9.31755 18.6587 8.92478V8.01413C18.6674 8.01413 18.6762 7.88176 18.6849 7.8803C18.6864 7.8803 18.6879 7.85121 18.6908 7.85121C18.7039 7.85121 18.7171 7.8483 18.7288 7.84684C18.777 7.83957 18.8237 7.82648 18.8675 7.80611C18.8938 7.79447 18.9186 7.77993 18.942 7.76538C18.9829 7.73774 19.018 7.70428 19.0472 7.66646C19.1071 7.60536 19.1377 7.47299 19.1377 7.37989L19.1041 6.66999C19.0384 6.57689 18.758 6.31068 18.6002 6.15794C18.5316 6.08957 18.441 6.03429 18.4162 6.01101L15.8616 5.77244C15.8616 5.77244 15.8295 5.76953 15.828 5.76953C15.5783 5.77244 15.346 5.98774 15.346 6.23795L15.3446 6.24085Z" fill="#126A41"/>
<path opacity="0.29" d="M15.2823 6.24085V7.43516C15.2823 7.4628 15.2867 7.49044 15.2925 7.51663C15.294 7.5239 15.2969 7.53263 15.2984 7.5399C15.3042 7.55881 15.31 7.57627 15.3188 7.59373C15.3217 7.601 15.3247 7.60827 15.329 7.61555C15.3407 7.63591 15.3524 7.65482 15.367 7.67373C15.3685 7.67664 15.3699 7.6781 15.3714 7.68101C15.3875 7.70137 15.4064 7.71883 15.4254 7.73483C15.4327 7.74065 15.44 7.74647 15.4473 7.75229C15.462 7.76247 15.4751 7.77265 15.4912 7.78284C15.4999 7.78866 15.5087 7.79302 15.5175 7.79738C15.535 7.80757 15.554 7.81484 15.573 7.82211C15.5788 7.82502 15.5846 7.82793 15.5919 7.82939C15.6489 7.84975 15.7088 7.85994 15.7716 7.85994V8.13197V8.59747V8.8695V8.92769C14.8091 9.32046 14.1313 10.2631 14.1313 11.3629V13.0169H20.1622L20.2104 13.0372H20.2381V11.3614C20.2381 10.2616 19.5604 9.319 18.5979 8.92623V7.9894C18.6154 7.9894 18.6329 7.87739 18.649 7.87157C18.6519 7.87157 18.6563 7.84684 18.6592 7.84539C18.6723 7.84393 18.6855 7.84103 18.6986 7.83812C18.7483 7.82793 18.7936 7.81048 18.8359 7.7872C18.8608 7.77265 18.8856 7.75665 18.906 7.7392C18.944 7.70719 18.9761 7.66937 18.9995 7.62718C19.0492 7.57627 19.0682 7.40461 19.0682 7.32752L19.0229 6.59726C18.9674 6.49834 18.6577 6.21903 18.5219 6.09247C18.4649 6.03574 18.351 5.98919 18.3306 5.97028L15.7935 5.77244C15.7935 5.77244 15.7628 5.76953 15.7599 5.76953C15.5116 5.7739 15.2823 5.98919 15.2823 6.23795V6.24085Z" fill="#0F5936"/>
<path opacity="0.43" d="M15.2196 6.24085V7.43516C15.2196 7.4628 15.2239 7.49044 15.2298 7.51663C15.2312 7.5239 15.2342 7.53263 15.2356 7.5399C15.2415 7.55881 15.2473 7.57627 15.2561 7.59373C15.259 7.601 15.2619 7.60827 15.2663 7.61555C15.278 7.63591 15.2897 7.65482 15.3043 7.67373C15.3057 7.67664 15.3072 7.6781 15.3087 7.68101C15.3247 7.70137 15.3437 7.71883 15.3627 7.73483C15.37 7.74065 15.3773 7.74647 15.3846 7.75229C15.3992 7.76247 15.4124 7.77265 15.4284 7.78284C15.4372 7.78866 15.4459 7.79302 15.4547 7.79738C15.4722 7.80757 15.4912 7.81484 15.5102 7.82211C15.5161 7.82502 15.5219 7.82793 15.5292 7.82939C15.5862 7.84975 15.646 7.85994 15.7089 7.85994V8.13197V8.59747V8.8695V8.92769C14.7463 9.32046 14.0686 10.2631 14.0686 11.3629V13.0169H20.1082L20.1462 13.0474H20.1739V11.3614C20.1739 10.2616 19.4962 9.319 18.5337 8.92623V7.96322C18.5599 7.96322 18.5862 7.87157 18.6111 7.86285C18.6169 7.86139 18.6213 7.84103 18.6271 7.83812C18.6403 7.83521 18.6534 7.8323 18.6666 7.82939C18.7162 7.81484 18.763 7.79447 18.8039 7.76684C18.8287 7.75083 18.8506 7.73192 18.8711 7.71156C18.9061 7.67519 18.9353 7.63446 18.9543 7.58791C18.9937 7.54718 18.9996 7.3377 18.9996 7.27515L18.9426 6.52452C18.8988 6.41978 18.5585 6.12884 18.4446 6.02701C18.3978 5.98192 18.262 5.9441 18.2459 5.92955L15.7264 5.77099C15.7264 5.77099 15.6972 5.76953 15.6928 5.76953C15.4459 5.7768 15.2196 5.99065 15.2196 6.23649V6.24085Z" fill="#0C472B"/>
<path opacity="0.57" d="M15.158 6.24185V7.43616C15.158 7.4638 15.1624 7.49144 15.1683 7.51762C15.1697 7.5249 15.1726 7.53363 15.1741 7.5409C15.1799 7.55981 15.1858 7.57727 15.1945 7.59472C15.1975 7.602 15.2004 7.60927 15.2048 7.61654C15.2165 7.63691 15.2281 7.65582 15.2427 7.67473C15.2442 7.67764 15.2457 7.6791 15.2471 7.682C15.2632 7.70237 15.2822 7.71983 15.3012 7.73583C15.3085 7.74165 15.3158 7.74747 15.3231 7.75329C15.3377 7.76347 15.3508 7.77365 15.3669 7.78238C15.3757 7.7882 15.3844 7.79256 15.3932 7.79693C15.4107 7.80711 15.4297 7.81438 15.4487 7.82166C15.4545 7.82457 15.4604 7.82748 15.4677 7.82893C15.5246 7.8493 15.5845 7.85948 15.6473 7.85948V8.13151V8.59701V8.86904V8.92723C14.6848 9.32 14.0071 10.2626 14.0071 11.3624V13.0164H20.0569L20.0861 13.0586H20.1138V11.3624C20.1138 10.2626 19.4361 9.32 18.4736 8.92723V7.93803C18.5086 7.93803 18.5437 7.86675 18.5758 7.85511C18.5831 7.85221 18.589 7.8362 18.5963 7.83329C18.6094 7.83038 18.6226 7.82602 18.6357 7.82166C18.6854 7.8042 18.7321 7.77947 18.7716 7.74747C18.7949 7.72856 18.8168 7.70819 18.8358 7.68491C18.8694 7.64418 18.8942 7.59909 18.9074 7.54963C18.9366 7.51908 18.9308 7.27032 18.9308 7.22523L18.8636 6.45569C18.83 6.34513 18.4604 6.0411 18.3684 5.96546C18.3334 5.93055 18.1742 5.90291 18.161 5.89272L15.659 5.77344C15.659 5.77344 15.6327 5.77344 15.6254 5.77344C15.3815 5.78362 15.1566 5.99601 15.1566 6.2404L15.158 6.24185Z" fill="#093521"/>
<path opacity="0.71" d="M15.0946 6.2404V7.43471C15.0946 7.46235 15.0989 7.48998 15.1048 7.51617C15.1062 7.52344 15.1092 7.53217 15.1106 7.53944C15.1165 7.55836 15.1223 7.57581 15.1311 7.59327C15.134 7.60054 15.1369 7.60781 15.1413 7.61509C15.153 7.63545 15.1647 7.65437 15.1793 7.67328C15.1807 7.67619 15.1822 7.67764 15.1837 7.68055C15.1997 7.70092 15.2187 7.71837 15.2377 7.73437C15.245 7.74019 15.2523 7.74601 15.2596 7.75183C15.2742 7.76201 15.2874 7.7722 15.3034 7.78238C15.3122 7.7882 15.3209 7.79256 15.3297 7.79693C15.3472 7.80711 15.3662 7.81438 15.3852 7.82166C15.3911 7.82457 15.3969 7.82747 15.4042 7.82893C15.4612 7.8493 15.521 7.85948 15.5839 7.85948V8.13151V8.59701V8.86904V8.92723C14.6213 9.32 13.9436 10.2626 13.9436 11.3624V13.0164H20.0022L20.0212 13.0688H20.0489V11.3624C20.0489 10.2626 19.3712 9.32 18.4087 8.92723V7.91185C18.4525 7.91185 18.4963 7.86093 18.5372 7.84639C18.5459 7.84348 18.5547 7.83038 18.5635 7.82748C18.5766 7.82311 18.5912 7.81875 18.6044 7.81293C18.6555 7.79111 18.7008 7.76347 18.7402 7.72856C18.7636 7.70819 18.784 7.68491 18.8016 7.66018C18.8322 7.61509 18.8527 7.56708 18.8629 7.51326C18.8833 7.49289 18.8629 7.20632 18.8629 7.17577L18.784 6.38587C18.7621 6.26804 18.3634 5.95382 18.2918 5.90291C18.2684 5.87963 18.0859 5.86217 18.0771 5.85345L15.5926 5.77344C15.5853 5.77344 15.5678 5.77344 15.559 5.77344C15.3166 5.78653 15.0946 5.99746 15.0946 6.2404Z" fill="#062316"/>
<path opacity="0.86" d="M15.0319 6.2404V7.43471C15.0319 7.46235 15.0363 7.48998 15.0422 7.51617C15.0436 7.52344 15.0465 7.53217 15.048 7.53944C15.0538 7.55836 15.0597 7.57581 15.0684 7.59327C15.0714 7.60054 15.0743 7.60782 15.0787 7.61509C15.0904 7.63545 15.102 7.65437 15.1166 7.67328C15.1181 7.67619 15.1196 7.67764 15.121 7.68055C15.1371 7.70092 15.1561 7.71837 15.1751 7.73437C15.1824 7.74019 15.1897 7.74601 15.197 7.75183C15.2116 7.76201 15.2247 7.7722 15.2408 7.78238C15.2496 7.7882 15.2583 7.79256 15.2671 7.79693C15.2846 7.80711 15.3036 7.81438 15.3226 7.82166C15.3284 7.82457 15.3343 7.82748 15.3416 7.82893C15.3985 7.8493 15.4584 7.85948 15.5212 7.85948V8.13151V8.59701V8.86904V8.92723C14.5587 9.32 13.881 10.2626 13.881 11.3624V13.0164H19.9498L19.96 13.0789H19.9877V11.3624C19.9877 10.2626 19.31 9.32 18.3475 8.92723V7.88566C18.4001 7.88566 18.4527 7.85511 18.5009 7.83766C18.5111 7.83475 18.5213 7.82602 18.5315 7.82166C18.5447 7.81584 18.5593 7.81002 18.5724 7.8042C18.6235 7.77947 18.6688 7.74747 18.7068 7.70819C18.7287 7.68491 18.7492 7.66018 18.7652 7.63255C18.793 7.58454 18.8105 7.53072 18.8149 7.47398C18.8251 7.4638 18.793 7.13795 18.793 7.1234L18.7024 6.31313C18.6907 6.18948 18.2628 5.86363 18.2131 5.83744C18.2014 5.82581 17.9955 5.81708 17.9911 5.81271L15.5242 5.77344C15.5154 5.77344 15.5008 5.77344 15.492 5.77344C15.251 5.78798 15.0334 5.99892 15.0334 6.2404H15.0319Z" fill="#03120B"/>
<path opacity="0.3" d="M19.8937 13.092H19.9215V11.3653C19.9215 10.2656 19.2438 9.32291 18.2812 8.93014V7.86239C18.3426 7.86239 18.4039 7.85221 18.4609 7.83184C18.4872 7.82311 18.5135 7.81147 18.5383 7.79693H18.5398C18.6741 7.72419 18.7691 7.59472 18.7691 7.43616L18.623 6.24185C18.623 6.11238 18.1644 5.77344 18.1366 5.77344H15.4579C15.2067 5.77344 14.9715 5.99019 14.9715 6.24185V7.43616C14.9715 7.4638 14.9759 7.49144 14.9817 7.51762C14.9832 7.5249 14.9861 7.53363 14.9876 7.5409C14.9934 7.55981 14.9993 7.57727 15.008 7.59472C15.0109 7.602 15.0139 7.60927 15.0182 7.61654C15.0299 7.63691 15.0416 7.65582 15.0562 7.67473C15.0577 7.67764 15.0591 7.6791 15.0606 7.68201C15.0767 7.70237 15.0957 7.71983 15.1146 7.73583C15.1219 7.74165 15.1293 7.74747 15.1366 7.75329C15.1512 7.76347 15.1643 7.77365 15.1804 7.78238C15.1891 7.7882 15.1979 7.79256 15.2067 7.79693C15.2242 7.80711 15.2432 7.81438 15.2622 7.82166C15.268 7.82457 15.2739 7.82748 15.2812 7.82893C15.3381 7.8493 15.398 7.85948 15.4608 7.85948V8.13151V8.59701V8.86904V8.92723C14.4983 9.32 13.8206 10.2626 13.8206 11.3624V13.0164H19.8981V13.0891L19.8937 13.092Z" fill="black"/>
</g>
<path fill-rule="evenodd" clip-rule="evenodd" d="M4.92065 14.7958V2.7232C4.92065 1.21904 6.1461 0 7.65489 0H9.02201C10.5323 0 11.7563 1.21904 11.7563 2.7232V14.7958H4.92065Z" fill="url(#paint0_linear_5153_80125)"/>
<path opacity="0.4" d="M7.77954 0H7.65685C6.14659 0 4.92261 1.21904 4.92261 2.7232V14.7958H5.52291V2.7232C5.52291 1.21904 6.53365 0 7.77954 0Z" fill="#FFE382"/>
<path opacity="0.4" d="M9.0231 0H8.90771C10.1536 0 11.1643 1.21904 11.1643 2.7232V14.7958H11.7573V2.7232C11.7573 1.21904 10.5334 0 9.0231 0Z" fill="#D0721B"/>
<path fill-rule="evenodd" clip-rule="evenodd" d="M8.52667 4.05404C7.58312 4.31879 5.52222 4.14714 5.52222 4.14714C5.52222 4.14714 6.88057 3.01102 8.12938 2.65753C9.3782 2.30549 11.1338 2.56442 11.1338 2.56442C11.1338 2.56442 9.46875 3.78783 8.52667 4.05404Z" fill="#FDD183"/>
<path d="M8.12938 2.65753C6.88057 3.01102 5.52222 4.14714 5.52222 4.14714L11.1338 2.56442C11.1338 2.56442 9.3782 2.30549 8.12938 2.65753Z" fill="#E38A33"/>
<path fill-rule="evenodd" clip-rule="evenodd" d="M8.52667 7.68685C7.58312 7.95161 5.52222 7.77995 5.52222 7.77995C5.52222 7.77995 6.88057 6.64383 8.12938 6.29034C9.3782 5.9383 11.1338 6.19724 11.1338 6.19724C11.1338 6.19724 9.46875 7.42064 8.52667 7.68685Z" fill="#FDD183"/>
<path d="M8.12938 6.29034C6.88057 6.64383 5.52222 7.77995 5.52222 7.77995L11.1338 6.19724C11.1338 6.19724 9.3782 5.9383 8.12938 6.29034Z" fill="#E38A33"/>
<path fill-rule="evenodd" clip-rule="evenodd" d="M8.52667 11.7728C7.58312 12.0375 5.52222 11.8659 5.52222 11.8659C5.52222 11.8659 6.88057 10.7283 8.12938 10.3763C9.3782 10.0242 11.1338 10.2832 11.1338 10.2832C11.1338 10.2832 9.46875 11.5066 8.52667 11.7728Z" fill="#F2BB6B"/>
<path d="M8.12938 10.3763C6.88057 10.7298 5.52222 11.8659 5.52222 11.8659L11.1338 10.2832C11.1338 10.2832 9.3782 10.0242 8.12938 10.3763Z" fill="#E38A33"/>
<path opacity="0.6" fill-rule="evenodd" clip-rule="evenodd" d="M7.74643 13.1616C7.74643 14.0635 7.01175 14.7952 6.10618 14.7952C5.61249 14.7952 5.19768 14.577 4.92163 14.2323V4.75781C5.97764 4.9542 7.83845 5.89539 7.83845 7.44174L7.74789 13.1602L7.74643 13.1616Z" fill="#C96B10"/>
<path d="M15.5306 11.5738C15.7103 11.2726 15.8154 10.9206 15.8154 10.5438C15.8154 9.46589 14.9654 8.5858 13.902 8.54652C13.902 8.51888 13.9035 8.4927 13.9035 8.46506C13.9035 7.36094 13.0125 6.46484 11.9142 6.46484C10.8158 6.46484 9.92483 7.35948 9.92483 8.46506C9.92483 8.4927 9.92483 8.51888 9.92629 8.54652C8.86444 8.58725 8.01583 9.46589 8.01583 10.5438C8.01583 10.9424 8.13268 11.3134 8.33132 11.6261C7.42429 11.8123 6.74219 12.6197 6.74219 13.5871C6.74219 14.6926 7.63315 15.5887 8.73152 15.5887C9.1551 15.5887 9.548 15.4549 9.87079 15.2265C10.4404 15.6527 11.1474 15.9059 11.9127 15.9059C12.6781 15.9059 13.3704 15.6586 13.9371 15.2396C14.1927 15.3603 14.4775 15.4273 14.7784 15.4273C15.8768 15.4273 16.7677 14.5312 16.7677 13.427C16.7677 12.5906 16.2551 11.8734 15.5291 11.5752L15.5306 11.5738Z" fill="url(#paint1_linear_5153_80125)"/>
<path opacity="0.7" d="M11.9706 6.46875V12.6585C11.9706 12.6585 8.29286 14.295 6.97248 12.6585C6.7753 12.4141 6.74316 13.252 6.74316 13.5866C6.74316 14.6922 7.63413 15.5883 8.7325 15.5883C9.15607 15.5883 9.54897 15.4544 9.87176 15.226C10.4414 15.6523 11.1483 15.9054 11.9137 15.9054H11.9181L13.8826 8.19693C13.754 7.23829 12.9522 6.49639 11.9692 6.46875H11.9706Z" fill="url(#paint2_linear_5153_80125)"/>
<path style="mix-blend-mode:multiply" opacity="0.8" d="M8.6843 13.3803C8.00804 13.3526 7.37852 13.1606 6.97248 12.6573C6.7753 12.4129 6.74316 13.2508 6.74316 13.5854C6.74316 14.6735 7.60784 15.558 8.6843 15.5842V13.3803Z" fill="url(#paint3_linear_5153_80125)"/>
<path style="mix-blend-mode:multiply" d="M15.531 11.5756C15.7107 11.2745 15.8158 10.9224 15.8158 10.5457C15.8158 9.46772 14.9658 8.58762 13.9024 8.54835C13.9024 8.52071 13.9039 8.49452 13.9039 8.46688C13.9039 8.37524 13.8951 8.2865 13.8835 8.19922L11.9189 15.9077C12.6741 15.9077 13.3722 15.6589 13.9375 15.2414C14.1931 15.3622 14.4779 15.4291 14.7788 15.4291C15.8772 15.4291 16.7681 14.533 16.7681 13.4289C16.7681 12.5924 16.2555 11.8752 15.5295 11.577L15.531 11.5756Z" fill="url(#paint4_linear_5153_80125)"/>
<g style="mix-blend-mode:soft-light">
<path d="M15.5321 11.5738C15.7117 11.2726 15.8169 10.9206 15.8169 10.5438C15.8169 9.46589 14.9668 8.5858 13.9035 8.54652C13.9035 8.51888 13.905 8.4927 13.905 8.46506C13.905 7.36094 13.014 6.46484 11.9156 6.46484C10.8173 6.46484 9.92631 7.35948 9.92631 8.46506C9.92631 8.4927 9.92631 8.51888 9.92777 8.54652C8.86591 8.58725 8.01731 9.46589 8.01731 10.5438C8.01731 10.941 8.13269 11.3119 8.3328 11.6232C8.41167 11.5956 8.492 11.5708 8.57526 11.5548C8.38976 11.2654 8.28167 10.9206 8.28167 10.5496C8.28167 9.54735 9.0704 8.72981 10.0578 8.69199C10.0578 8.66726 10.0563 8.64108 10.0563 8.61635C10.0563 7.58933 10.8845 6.75724 11.9054 6.75724C12.9264 6.75724 13.7545 7.58933 13.7545 8.61635C13.7545 8.64108 13.7545 8.66726 13.7531 8.69199C14.7419 8.72981 15.5321 9.54735 15.5321 10.5496C15.5321 10.9002 15.4357 11.2275 15.2677 11.5068C15.9425 11.7832 16.4187 12.4509 16.4187 13.2292C16.4187 14.2562 15.5905 15.0883 14.5695 15.0883C14.2906 15.0883 14.0247 15.0258 13.7881 14.9137C13.2609 15.3036 12.6109 15.5334 11.9069 15.5334C11.2029 15.5334 10.5383 15.2992 10.0096 14.9021C9.70868 15.113 9.34353 15.2381 8.94917 15.2381C7.92821 15.2381 7.10005 14.4046 7.10005 13.3776C7.10005 12.5775 7.6025 11.8967 8.30651 11.6334C7.41554 11.8312 6.74805 12.6299 6.74805 13.5871C6.74805 14.6926 7.63901 15.5887 8.73738 15.5887C9.16096 15.5887 9.55386 15.4549 9.87665 15.2265C10.4463 15.6527 11.1532 15.9059 11.9186 15.9059C12.6839 15.9059 13.3762 15.6586 13.943 15.2396C14.1986 15.3603 14.4834 15.4273 14.7843 15.4273C15.8826 15.4273 16.7736 14.5312 16.7736 13.427C16.7736 12.5906 16.2609 11.8734 15.535 11.5752L15.5321 11.5738Z" fill="white"/>
</g>
<path fill-rule="evenodd" clip-rule="evenodd" d="M11.165 10.3672C12.7512 10.3672 14.0351 11.6473 14.0351 13.2257C14.0351 14.804 12.7497 16.0842 11.165 16.0842C9.58025 16.0842 8.29492 14.804 8.29492 13.2257C8.29492 11.6473 9.58025 10.3672 11.165 10.3672Z" fill="url(#paint5_linear_5153_80125)"/>
<path style="mix-blend-mode:soft-light" d="M8.39194 13.7243C8.3861 13.3271 8.45328 12.7234 8.80529 12.1095C9.23617 11.356 9.81164 10.9894 10.2206 10.8163C10.5113 10.6927 10.8209 10.617 11.1408 10.5938L11.1948 11.3196C10.9553 11.3371 10.7245 11.3924 10.5083 11.4855C10.0643 11.6746 9.70502 12.0063 9.44065 12.4703C9.17044 12.9431 9.11932 13.4086 9.1237 13.7155L8.3934 13.7257L8.39194 13.7243Z" fill="url(#paint6_linear_5153_80125)"/>
<path opacity="0.4" fill-rule="evenodd" clip-rule="evenodd" d="M11.6422 10.4102C12.5361 10.4829 14.4816 14.2302 11.651 13.0112C11.4348 12.9181 11.0244 13.7138 11.0244 13.7138L8.74586 12.8744V13.6498H8.32812C8.53407 15.0274 9.723 16.0849 11.1631 16.0849C12.7494 16.0849 14.0332 14.8048 14.0332 13.2265C14.0332 11.8096 12.9977 10.6371 11.6408 10.4102H11.6422Z" fill="#D00F23"/>
<path fill-rule="evenodd" clip-rule="evenodd" d="M11.165 10.3672C12.7512 10.3672 14.0351 11.6473 14.0351 13.2257C14.0351 14.804 12.7497 16.0842 11.165 16.0842C9.58025 16.0842 8.29492 14.804 8.29492 13.2257C8.29492 11.6473 9.58025 10.3672 11.165 10.3672Z" fill="url(#paint7_radial_5153_80125)"/>
<path d="M18.1359 8.93049V7.64453H15.3112V8.93049C14.3486 9.32326 13.6709 10.2659 13.6709 11.3657V18.9897C13.6709 20.443 14.854 21.6227 16.3131 21.6227H17.134C18.5931 21.6227 19.7762 20.4444 19.7762 18.9897V11.3657C19.7762 10.2659 19.0985 9.32326 18.1359 8.93049Z" fill="url(#paint8_linear_5153_80125)"/>
<path style="mix-blend-mode:multiply" fill-rule="evenodd" clip-rule="evenodd" d="M18.6056 9.91406C19.1271 10.349 19.3228 11.4648 19.3228 12.0016V17.9018C19.3228 19.3551 18.1602 20.5348 16.7258 20.5348C15.2915 20.5348 14.1289 19.3565 14.1289 17.9018V12.0016C14.1289 11.4648 14.3232 10.349 14.7555 9.91406H18.6071H18.6056Z" fill="url(#paint9_linear_5153_80125)"/>
<path style="mix-blend-mode:soft-light" d="M16.5853 9.20312L14.8223 9.30641C14.1943 9.6919 13.6729 10.5094 13.6729 11.5859V19.0456C13.6729 20.4683 14.444 21.6204 15.3964 21.6204H15.9309C16.8832 21.6204 17.6544 20.4669 17.6544 19.0456V11.5859C17.6544 10.5094 17.2119 9.58717 16.5853 9.20312Z" fill="url(#paint10_linear_5153_80125)"/>
<path style="mix-blend-mode:soft-light" d="M16.2829 9.30469L14.4397 9.60872C14.0818 9.99422 13.6729 10.5077 13.6729 11.5842V19.0439C13.6729 20.4666 14.114 21.6187 14.6573 21.6187H14.9626C15.5059 21.6187 15.947 20.4651 15.947 19.0439V11.5842C15.947 10.5077 16.2829 9.30469 16.2829 9.30469Z" fill="url(#paint11_linear_5153_80125)"/>
<g style="mix-blend-mode:soft-light">
<path d="M15.1275 10.3717L15.222 10.3811C15.3557 10.3943 15.4538 10.5137 15.4405 10.6468L15.3318 11.7354C15.3185 11.8686 15.1987 11.9664 15.065 11.9531L14.9705 11.9437C14.8368 11.9305 14.7386 11.8111 14.7519 11.678L14.8606 10.5894C14.8739 10.4562 14.9938 10.3585 15.1275 10.3717Z" fill="#FCFCFC"/>
</g>
<path opacity="0.2" d="M18.1372 7.64062H16.9746V8.8713H18.1372V7.64062Z" fill="#A0A0A0"/>
<path fill-rule="evenodd" clip-rule="evenodd" d="M15.3115 7.58594H18.1363V8.13H15.3115V7.58594Z" fill="#A0A0A0"/>
<path fill-rule="evenodd" clip-rule="evenodd" d="M15.3115 7.44141H18.1363V7.98546H15.3115V7.44141Z" fill="#715C77"/>
<path opacity="0.2" fill-rule="evenodd" clip-rule="evenodd" d="M15.3115 8.59766H18.1363V8.86969H15.3115V8.59766Z" fill="#A0A0A0"/>
<path fill-rule="evenodd" clip-rule="evenodd" d="M15.3116 5.77344H18.1364C18.3876 5.77344 18.6228 5.99019 18.6228 6.24185V7.43616C18.6228 7.68637 18.3876 7.86093 18.1364 7.86093H15.3116C15.0604 7.86093 14.8252 7.68637 14.8252 7.43616V6.24185C14.8252 5.99164 15.0604 5.77344 15.3116 5.77344Z" fill="url(#paint12_linear_5153_80125)"/>
<path opacity="0.4" d="M15.9593 5.77344H15.7665V7.83038H15.9593V5.77344Z" fill="white"/>
<path opacity="0.4" d="M16.3968 5.77344H16.204V7.83038H16.3968V5.77344Z" fill="white"/>
<path opacity="0.4" d="M16.805 5.77344H16.6122V7.83038H16.805V5.77344Z" fill="white"/>
<path opacity="0.4" d="M17.2298 5.77344H17.037V7.83038H17.2298V5.77344Z" fill="white"/>
<path opacity="0.4" d="M17.6507 5.78906H17.4579V7.84601H17.6507V5.78906Z" fill="white"/>
<path opacity="0.4" d="M18.0521 5.77344H17.8593V7.83038H18.0521V5.77344Z" fill="white"/>
<path opacity="0.4" d="M18.2704 5.79442V7.82809H18.3142C18.3682 7.80918 18.4194 7.78154 18.4632 7.74663V5.90207C18.4077 5.85261 18.342 5.81479 18.2704 5.79297V5.79442Z" fill="white"/>
<path opacity="0.4" d="M14.9022 5.99687V7.66541C14.9504 7.72942 15.0176 7.78033 15.095 7.81379V5.82812C15.0176 5.8674 14.9504 5.92559 14.9022 5.99833V5.99687Z" fill="white"/>
<path opacity="0.4" d="M15.554 5.78906H15.3612V7.84601H15.554V5.78906Z" fill="white"/>
<g style="mix-blend-mode:soft-light">
<path d="M15.1163 6.53279C15.1163 6.28258 15.3515 6.06438 15.6027 6.06438H18.4275C18.4845 6.06438 18.54 6.07747 18.594 6.09784C18.5254 5.91454 18.337 5.77344 18.1354 5.77344H15.3106C15.0594 5.77344 14.8242 5.99019 14.8242 6.24185V7.43616C14.8242 7.62527 14.9586 7.77074 15.1324 7.83184C15.1236 7.79838 15.1163 7.76492 15.1163 7.72856V6.53425V6.53279Z" fill="white"/>
</g>
<path fill-rule="evenodd" clip-rule="evenodd" d="M0.273438 17.2118V7.59039C0.273438 6.08623 1.49742 4.86719 3.00768 4.86719H4.3748C5.88506 4.86719 7.10904 6.08623 7.10904 7.59039V17.2118H0.273438Z" fill="#FFBF53"/>
<path opacity="0.4" d="M3.11868 4.86719H3.00768C1.49742 4.86719 0.273438 6.08623 0.273438 7.59039V17.2118H0.873743V7.59039C0.873743 6.08623 1.87863 4.86719 3.11868 4.86719Z" fill="#FFE382"/>
<path opacity="0.4" d="M4.37514 4.86719H4.24076C5.48081 4.86719 6.4857 6.08623 6.4857 7.59039V13.1852L5.77147 12.7604L4.81332 13.8223L2.93645 12.7604L1.97391 13.722L0.222656 12.8855L0.979246 17.1871L7.10792 17.2132V7.59039C7.10792 6.08623 5.88393 4.86719 4.37368 4.86719H4.37514Z" fill="#D0721B"/>
<path fill-rule="evenodd" clip-rule="evenodd" d="M3.8775 9.01107C2.93395 9.27582 0.873047 9.10417 0.873047 9.10417C0.873047 9.10417 2.2314 7.96659 3.48021 7.61456C4.72903 7.26252 6.48467 7.52146 6.48467 7.52146C6.48467 7.52146 4.81958 8.74486 3.8775 9.01107Z" fill="#FDD183"/>
<path d="M3.48021 7.61456C2.2314 7.96805 0.873047 9.10417 0.873047 9.10417L6.48467 7.52146C6.48467 7.52146 4.72903 7.26252 3.48021 7.61456Z" fill="#E38A33"/>
<path fill-rule="evenodd" clip-rule="evenodd" d="M3.8775 12.1009C2.93395 12.3657 0.873047 12.194 0.873047 12.194C0.873047 12.194 2.2314 11.0579 3.48021 10.7044C4.72903 10.3524 6.48467 10.6113 6.48467 10.6113C6.48467 10.6113 4.81958 11.8347 3.8775 12.1009Z" fill="#FDD183"/>
<path d="M3.48021 10.7044C2.2314 11.0579 0.873047 12.194 0.873047 12.194L6.48467 10.6113C6.48467 10.6113 4.72903 10.3524 3.48021 10.7044Z" fill="#E38A33"/>
<path fill-rule="evenodd" clip-rule="evenodd" d="M17.9989 27.7654H2.05068C0.918716 27.7654 0 27.0337 0 26.1332V12.8867H0.0861753L1.51756 14.0301L2.9358 12.8984L4.35404 14.0301L5.77228 12.8984L7.19052 14.0301L8.62191 12.8867H8.69494L10.1263 14.0301L11.5446 12.8984L12.9628 14.0301L14.381 12.8984L15.7993 14.0301L17.2175 12.8984L18.6358 14.0301L20.054 12.8984V26.1318C20.054 27.0337 19.1353 27.7639 18.0033 27.7639L17.9989 27.7654Z" fill="url(#paint13_linear_5153_80125)"/>
<path fill-rule="evenodd" clip-rule="evenodd" d="M1.49127 14.0083L0.0861753 12.8867H0V26.1318C0 26.8795 0.630978 27.5079 1.49127 27.7014V14.0083Z" fill="url(#paint14_linear_5153_80125)"/>
<path opacity="0.7" fill-rule="evenodd" clip-rule="evenodd" d="M18.6317 14.0302L18.5791 13.988V27.6971C19.4277 27.4978 20.0485 26.8723 20.0485 26.1318V12.8984L18.6302 14.0302H18.6317Z" fill="#DE832F"/>
<path fill-rule="evenodd" clip-rule="evenodd" d="M17.9989 27.9998H2.05068C0.918716 27.9998 0 27.2681 0 26.3676V13.1211H0.0861753L1.51756 14.2645L2.9358 13.1327L4.35404 14.2645L5.77228 13.1327L7.19052 14.2645L8.62191 13.1211H8.69494L10.1263 14.2645L11.5446 13.1327L12.9628 14.2645L14.381 13.1327L15.7993 14.2645L17.2175 13.1327L18.6358 14.2645L20.054 13.1327V26.3661C20.054 27.2681 19.1353 27.9983 18.0033 27.9983L17.9989 27.9998Z" fill="url(#paint15_linear_5153_80125)"/>
<path style="mix-blend-mode:multiply" opacity="0.26" fill-rule="evenodd" clip-rule="evenodd" d="M17.9989 27.9999H2.05062C1.85636 27.9999 1.49121 27.9388 1.49121 27.9388L18.6328 14.2646L20.051 13.1328V26.3662C20.051 27.2681 19.1323 27.9984 18.0004 27.9984L17.9989 27.9999Z" fill="url(#paint16_linear_5153_80125)"/>
<path opacity="0.26" fill-rule="evenodd" clip-rule="evenodd" d="M1.49127 14.0214L0.0861753 12.8867H0V26.3645C0 27.121 0.630978 27.7392 1.49127 27.9356V14.0214Z" fill="url(#paint17_linear_5153_80125)"/>
<path d="M31.9633 17.5464L32.4533 14.5224H34.6653L33.9233 19.1424C32.8966 19.4504 31.8046 19.6044 30.6473 19.6044C29.3033 19.6044 28.2533 19.2731 27.4973 18.6104C26.7413 17.9384 26.3633 16.9164 26.3633 15.5444C26.3633 13.7618 26.8766 12.2918 27.9033 11.1344C28.9393 9.97711 30.3859 9.39844 32.2433 9.39844C32.8219 9.39844 33.3913 9.4311 33.9513 9.49644C34.5113 9.56177 34.8799 9.63644 35.0573 9.72044L34.6093 11.7364C33.9373 11.5218 33.1579 11.4144 32.2713 11.4144C31.1606 11.4144 30.2833 11.7504 29.6393 12.4224C29.0046 13.0944 28.6873 14.0231 28.6873 15.2084C28.6873 16.8138 29.4853 17.6164 31.0813 17.6164C31.3239 17.6164 31.6179 17.5931 31.9633 17.5464ZM35.6772 19.4504L36.8392 12.0724H38.5612L38.4772 13.8504C39.2332 12.5624 40.1758 11.9184 41.3052 11.9184H41.4312L41.0112 14.1444C40.5352 14.1444 40.0638 14.2938 39.5972 14.5924C39.1305 14.8818 38.7478 15.2364 38.4492 15.6564L37.8612 19.4504H35.6772ZM44.943 19.5904C43.935 19.5717 43.151 19.3011 42.591 18.7784C42.031 18.2558 41.751 17.5231 41.751 16.5804C41.751 15.1991 42.143 14.0791 42.927 13.2204C43.7203 12.3524 44.775 11.9184 46.091 11.9184C47.1363 11.9184 47.9436 12.1798 48.513 12.7024C49.0916 13.2158 49.381 13.9531 49.381 14.9144C49.381 16.3424 48.989 17.4811 48.205 18.3304C47.421 19.1704 46.3336 19.5904 44.943 19.5904ZM45.181 17.7704C45.797 17.7704 46.287 17.5418 46.651 17.0844C47.015 16.6178 47.197 15.9831 47.197 15.1804C47.197 14.2098 46.7816 13.7244 45.951 13.7244C45.3443 13.7244 44.8543 13.9531 44.481 14.4104C44.1076 14.8678 43.921 15.5071 43.921 16.3284C43.921 16.8231 44.0236 17.1871 44.229 17.4204C44.4436 17.6444 44.761 17.7611 45.181 17.7704ZM56.0602 17.5184L55.8222 19.3664C55.1035 19.5251 54.4035 19.6044 53.7222 19.6044C52.6395 19.6044 51.8182 19.3431 51.2582 18.8204C50.7075 18.2884 50.4322 17.5278 50.4322 16.5384C50.4322 15.1478 50.8335 14.0371 51.6362 13.2064C52.4482 12.3664 53.5262 11.9464 54.8702 11.9464C55.5702 11.9464 56.3028 12.0491 57.0682 12.2544L56.6622 14.1024C55.9902 13.9064 55.4162 13.8084 54.9402 13.8084C54.2775 13.8084 53.7268 14.0044 53.2882 14.3964C52.8495 14.7884 52.6302 15.3764 52.6302 16.1604C52.6302 17.2151 53.1622 17.7424 54.2262 17.7424C54.8515 17.7424 55.4628 17.6678 56.0602 17.5184ZM64.7491 14.1444C64.6744 15.8618 63.3911 16.7204 60.8991 16.7204C60.5444 16.7204 60.1991 16.7064 59.8631 16.6784C59.9098 17.1078 60.0591 17.4158 60.3111 17.6024C60.5724 17.7891 61.0158 17.8824 61.6411 17.8824C62.3784 17.8824 63.1391 17.7471 63.9231 17.4764L63.5871 19.2544C62.8031 19.4971 61.9631 19.6184 61.0671 19.6184C59.8164 19.6184 58.9251 19.3524 58.3931 18.8204C57.8704 18.2884 57.6091 17.5184 57.6091 16.5104C57.6091 15.2224 57.9918 14.1398 58.7571 13.2624C59.5318 12.3851 60.5724 11.9464 61.8791 11.9464C62.8591 11.9464 63.5824 12.1471 64.0491 12.5484C64.5158 12.9404 64.7491 13.4724 64.7491 14.1444ZM59.9751 15.3064C60.0684 15.3251 60.2178 15.3344 60.4231 15.3344C61.8511 15.3344 62.5651 15.0031 62.5651 14.3404C62.5651 14.1258 62.4951 13.9531 62.3551 13.8224C62.2151 13.6824 62.0051 13.6124 61.7251 13.6124C61.2771 13.6124 60.9038 13.7618 60.6051 14.0604C60.3158 14.3591 60.1058 14.7744 59.9751 15.3064ZM65.6565 19.4504L66.8185 12.0724H68.5405L68.4565 13.8504C69.2125 12.5624 70.1551 11.9184 71.2845 11.9184H71.4105L70.9905 14.1444C70.5145 14.1444 70.0431 14.2938 69.5765 14.5924C69.1098 14.8818 68.7271 15.2364 68.4285 15.6564L67.8405 19.4504H65.6565ZM70.4703 22.2504L70.8343 20.5004C71.0956 20.6311 71.4176 20.6964 71.8003 20.6964C72.1549 20.6964 72.4723 20.5797 72.7523 20.3464C73.0416 20.1224 73.2749 19.8144 73.4523 19.4224L71.9963 12.0724H74.3623L74.7823 15.9364L74.8383 17.5604C75.2676 16.7391 75.7156 15.7451 76.1823 14.5784C76.6489 13.4118 76.8869 12.5764 76.8963 12.0724H79.1083V12.1284C79.1083 12.6511 78.8283 13.5051 78.2683 14.6904C77.7176 15.8758 77.2229 16.8371 76.7843 17.5744C76.3549 18.3118 75.9723 18.9464 75.6363 19.4784C75.4403 19.7864 75.3049 19.9964 75.2303 20.1084C75.1649 20.2204 75.0343 20.4117 74.8383 20.6824C74.6423 20.9624 74.4883 21.1584 74.3763 21.2704C74.2643 21.3824 74.1009 21.5317 73.8863 21.7184C73.6809 21.9144 73.4849 22.0497 73.2983 22.1244C73.1209 22.2084 72.9063 22.2831 72.6543 22.3484C72.4116 22.4231 72.1596 22.4604 71.8983 22.4604C71.4503 22.4604 70.9743 22.3904 70.4703 22.2504Z" fill="#111112"/>
<defs>
<linearGradient id="paint0_linear_5153_80125" x1="8.33845" y1="14.7958" x2="8.33845" y2="0" gradientUnits="userSpaceOnUse">
<stop stop-color="#FF8000"/>
<stop offset="1" stop-color="#FFC55B"/>
</linearGradient>
<linearGradient id="paint1_linear_5153_80125" x1="11.7564" y1="15.9044" x2="11.7564" y2="6.46484" gradientUnits="userSpaceOnUse">
<stop stop-color="#A0CD2A"/>
<stop offset="1" stop-color="#D3E962"/>
</linearGradient>
<linearGradient id="paint2_linear_5153_80125" x1="12.4862" y1="15.0748" x2="8.06089" y2="6.72883" gradientUnits="userSpaceOnUse">
<stop stop-color="#A0CD2A"/>
<stop offset="0.58" stop-color="#AFD53A"/>
<stop offset="1" stop-color="#D3E962"/>
</linearGradient>
<linearGradient id="paint3_linear_5153_80125" x1="9.3255" y1="16.7494" x2="4.90015" y2="8.40489" gradientUnits="userSpaceOnUse">
<stop stop-color="#D3E962"/>
<stop offset="1" stop-color="#A0CD2A"/>
</linearGradient>
<linearGradient id="paint4_linear_5153_80125" x1="11.7291" y1="7.93883" x2="13.5902" y2="12.3985" gradientUnits="userSpaceOnUse">
<stop stop-color="#D3E962"/>
<stop offset="1" stop-color="#A0CD2A"/>
</linearGradient>
<linearGradient id="paint5_linear_5153_80125" x1="11.165" y1="16.0856" x2="11.165" y2="10.3672" gradientUnits="userSpaceOnUse">
<stop stop-color="#F30018"/>
<stop offset="1" stop-color="#FE5062"/>
</linearGradient>
<linearGradient id="paint6_linear_5153_80125" x1="8.7235" y1="13.9148" x2="10.7588" y2="10.3742" gradientUnits="userSpaceOnUse">
<stop offset="0.2" stop-color="white"/>
<stop offset="0.54" stop-color="white"/>
<stop offset="0.9" stop-color="white"/>
</linearGradient>
<radialGradient id="paint7_radial_5153_80125" cx="0" cy="0" r="1" gradientUnits="userSpaceOnUse" gradientTransform="translate(11.165 13.2271) scale(3.66902 3.65421)">
<stop offset="0.71" stop-color="#FF7777"/>
<stop offset="0.88" stop-color="white"/>
</radialGradient>
<linearGradient id="paint8_linear_5153_80125" x1="13.6694" y1="14.6344" x2="19.7762" y2="14.6344" gradientUnits="userSpaceOnUse">
<stop stop-color="white"/>
<stop offset="1" stop-color="#E3E3E3"/>
</linearGradient>
<linearGradient id="paint9_linear_5153_80125" x1="16.7244" y1="20.5348" x2="16.7244" y2="9.91406" gradientUnits="userSpaceOnUse">
<stop stop-color="#FF0000"/>
<stop offset="1" stop-color="#E58791"/>
</linearGradient>
<linearGradient id="paint10_linear_5153_80125" x1="13.6729" y1="15.4132" x2="17.6559" y2="15.4132" gradientUnits="userSpaceOnUse">
<stop stop-color="white"/>
<stop offset="1" stop-color="#FF9797"/>
</linearGradient>
<linearGradient id="paint11_linear_5153_80125" x1="0.00018887" y1="15.4624" x2="16.2829" y2="15.4624" gradientUnits="userSpaceOnUse">
<stop stop-color="white"/>
<stop offset="1" stop-color="#FF9797"/>
</linearGradient>
<linearGradient id="paint12_linear_5153_80125" x1="16.724" y1="7.86093" x2="16.724" y2="5.77344" gradientUnits="userSpaceOnUse">
<stop stop-color="#9DAAB4"/>
<stop offset="1" stop-color="#DFDFDF"/>
</linearGradient>
<linearGradient id="paint13_linear_5153_80125" x1="17.2686" y1="28.9844" x2="2.95397" y2="10.5888" gradientUnits="userSpaceOnUse">
<stop stop-color="#FFDE9C"/>
<stop offset="1" stop-color="#FFF1D6"/>
</linearGradient>
<linearGradient id="paint14_linear_5153_80125" x1="0" y1="20.2955" x2="1.49127" y2="20.2955" gradientUnits="userSpaceOnUse">
<stop stop-color="#FFDE9C"/>
<stop offset="1" stop-color="#FFDA93"/>
</linearGradient>
<linearGradient id="paint15_linear_5153_80125" x1="17.2686" y1="29.2188" x2="2.95397" y2="10.8232" gradientUnits="userSpaceOnUse">
<stop stop-color="#F6B943"/>
<stop offset="1" stop-color="#FFE37F"/>
</linearGradient>
<linearGradient id="paint16_linear_5153_80125" x1="17.4629" y1="29.0676" x2="10.7153" y2="20.3958" gradientUnits="userSpaceOnUse">
<stop stop-color="#FFCF6F"/>
<stop offset="1" stop-color="#FFDA90"/>
</linearGradient>
<linearGradient id="paint17_linear_5153_80125" x1="0.744905" y1="27.9371" x2="0.744905" y2="12.8867" gradientUnits="userSpaceOnUse">
<stop stop-color="#FFE597"/>
<stop offset="1" stop-color="#FFD686"/>
</linearGradient>
</defs>
</svg>
